<?xml version="1.0" encoding="UTF-8" standalone="no"?>
<!-- Created with Inkscape (http://www.inkscape.org/) -->

<svg
   xmlns:dc="http://purl.org/dc/elements/1.1/"
   xmlns:cc="http://creativecommons.org/ns#"
   xmlns:rdf="http://www.w3.org/1999/02/22-rdf-syntax-ns#"
   xmlns:svg="http://www.w3.org/2000/svg"
   xmlns="http://www.w3.org/2000/svg"
   xmlns:sodipodi="http://sodipodi.sourceforge.net/DTD/sodipodi-0.dtd"
   xmlns:inkscape="http://www.inkscape.org/namespaces/inkscape"
   version="1.1"
   id="svg3429"
   xml:space="preserve"
   width="480"
   height="384"
   viewBox="0 0 480 384"
   sodipodi:docname="agerr.svg"
   inkscape:version="0.92.5 (2060ec1f9f, 2020-04-08)"><metadata
     id="metadata3435"><rdf:RDF><cc:Work
         rdf:about=""><dc:format>image/svg+xml</dc:format><dc:type
           rdf:resource="http://purl.org/dc/dcmitype/StillImage" /><dc:title></dc:title></cc:Work></rdf:RDF></metadata><defs
     id="defs3433"><clipPath
       clipPathUnits="userSpaceOnUse"
       id="clipPath3447"><path
         d="M 36,36 H 352.8 V 280.8 H 36 Z"
         id="path3445"
         inkscape:connector-curvature="0" /></clipPath><clipPath
       clipPathUnits="userSpaceOnUse"
       id="clipPath3549"><path
         d="M 36,36 H 352.8 V 280.8 H 36 Z"
         id="path3547"
         inkscape:connector-curvature="0" /></clipPath></defs><sodipodi:namedview
     pagecolor="#ffffff"
     bordercolor="#666666"
     borderopacity="1"
     objecttolerance="10"
     gridtolerance="10"
     guidetolerance="10"
     inkscape:pageopacity="0"
     inkscape:pageshadow="2"
     inkscape:window-width="1920"
     inkscape:window-height="1056"
     id="namedview3431"
     showgrid="false"
     inkscape:zoom="2.3671875"
     inkscape:cx="240"
     inkscape:cy="192"
     inkscape:window-x="0"
     inkscape:window-y="24"
     inkscape:window-maximized="1"
     inkscape:current-layer="g3545" /><g
     id="g3437"
     inkscape:groupmode="layer"
     inkscape:label="agerr"
     transform="matrix(1.3333333,0,0,-1.3333333,0,384)"><g
       id="g3439" /><g
       id="g3441"><g
         id="g3443"
         clip-path="url(#clipPath3447)"><path
           d="m 47.73,46.69 0.15,1.21 0.15,0.82 0.15,0.67 0.15,0.58 0.14,0.52 0.15,0.48 0.15,0.44 0.15,0.41 0.15,0.38 0.15,0.37 0.14,0.35 0.15,0.33 0.15,0.33 0.15,0.31 0.15,0.3 0.14,0.29 0.15,0.28 0.15,0.27 0.15,0.27 0.15,0.26 0.15,0.25 0.14,0.25 0.15,0.24 0.15,0.24 0.15,0.23 0.15,0.23 0.14,0.23 0.15,0.22 0.15,0.21 0.15,0.22 0.15,0.21 0.15,0.2 0.14,0.21 0.15,0.2 0.15,0.19 0.15,0.2 0.15,0.19 0.14,0.19 0.15,0.19 0.15,0.18 0.15,0.18 0.15,0.18 0.15,0.18 0.14,0.18 0.15,0.17 0.15,0.18 0.15,0.17 0.15,0.17 0.15,0.16 0.73,0.81 5.82,5.42 5.83,4.4 5.82,3.82 5.82,3.42 5.82,3.14 5.83,2.92 5.82,2.75 5.82,2.59 5.83,2.48 5.82,2.37 5.82,2.27 5.83,2.19 5.82,2.12 5.82,2.05 5.83,1.99 5.82,1.94 5.82,1.88 5.83,1.83 5.82,1.79 5.82,1.75 5.83,1.71 5.82,1.67 5.82,1.64 5.83,1.6 5.82,1.57 5.82,1.54 5.83,1.51 5.82,1.49 5.82,1.45 5.83,1.44 5.82,1.4 5.82,1.39 5.83,1.36 5.82,1.34 5.82,1.31 5.82,1.3 5.83,1.28 5.82,1.25 5.82,1.24 5.83,1.22 5.82,1.2 5.82,1.18 5.83,1.17 5.82,1.15 5.82,1.13 5.83,1.12 5.82,1.1 5.82,1.09 5.83,1.07"
           style="fill:none;stroke:#000000;stroke-width:1.5;stroke-linecap:round;stroke-linejoin:round;stroke-miterlimit:10;stroke-dasharray:0, 6, 4.5, 6;stroke-dashoffset:0;stroke-opacity:1"
           id="path3449"
           inkscape:connector-curvature="0" /></g></g><g
       id="g3451"><path
         d="M 47.66,36 H 341.07"
         style="fill:none;stroke:#000000;stroke-width:0.75;stroke-linecap:round;stroke-linejoin:round;stroke-miterlimit:10;stroke-dasharray:none;stroke-opacity:1"
         id="path3453"
         inkscape:connector-curvature="0" /><path
         d="M 47.66,36 V 28.8"
         style="fill:none;stroke:#000000;stroke-width:0.75;stroke-linecap:round;stroke-linejoin:round;stroke-miterlimit:10;stroke-dasharray:none;stroke-opacity:1"
         id="path3455"
         inkscape:connector-curvature="0" /><path
         d="M 121.01,36 V 28.8"
         style="fill:none;stroke:#000000;stroke-width:0.75;stroke-linecap:round;stroke-linejoin:round;stroke-miterlimit:10;stroke-dasharray:none;stroke-opacity:1"
         id="path3457"
         inkscape:connector-curvature="0" /><path
         d="M 194.36,36 V 28.8"
         style="fill:none;stroke:#000000;stroke-width:0.75;stroke-linecap:round;stroke-linejoin:round;stroke-miterlimit:10;stroke-dasharray:none;stroke-opacity:1"
         id="path3459"
         inkscape:connector-curvature="0" /><path
         d="M 267.71,36 V 28.8"
         style="fill:none;stroke:#000000;stroke-width:0.75;stroke-linecap:round;stroke-linejoin:round;stroke-miterlimit:10;stroke-dasharray:none;stroke-opacity:1"
         id="path3461"
         inkscape:connector-curvature="0" /><path
         d="M 341.07,36 V 28.8"
         style="fill:none;stroke:#000000;stroke-width:0.75;stroke-linecap:round;stroke-linejoin:round;stroke-miterlimit:10;stroke-dasharray:none;stroke-opacity:1"
         id="path3463"
         inkscape:connector-curvature="0" /><text
         transform="matrix(1,0,0,-1,44.32,17.28)"
         style="font-variant:normal;font-weight:normal;font-size:12px;font-family:Helvetica;-inkscape-font-specification:Helvetica;writing-mode:lr-tb;fill:#000000;fill-opacity:1;fill-rule:nonzero;stroke:none"
         id="text3467"><tspan
           x="0"
           y="0"
           id="tspan3465">0</tspan></text>
<text
         transform="matrix(1,0,0,-1,107.67,17.28)"
         style="font-variant:normal;font-weight:normal;font-size:12px;font-family:Helvetica;-inkscape-font-specification:Helvetica;writing-mode:lr-tb;fill:#000000;fill-opacity:1;fill-rule:nonzero;stroke:none"
         id="text3471"><tspan
           x="0 6.6719999 13.344 20.016001"
           y="0"
           sodipodi:role="line"
           id="tspan3469">1000</tspan></text>
<text
         transform="matrix(1,0,0,-1,181.02,17.28)"
         style="font-variant:normal;font-weight:normal;font-size:12px;font-family:Helvetica;-inkscape-font-specification:Helvetica;writing-mode:lr-tb;fill:#000000;fill-opacity:1;fill-rule:nonzero;stroke:none"
         id="text3475"><tspan
           x="0 6.6719999 13.344 20.016001"
           y="0"
           sodipodi:role="line"
           id="tspan3473">2000</tspan></text>
<text
         transform="matrix(1,0,0,-1,254.37,17.28)"
         style="font-variant:normal;font-weight:normal;font-size:12px;font-family:Helvetica;-inkscape-font-specification:Helvetica;writing-mode:lr-tb;fill:#000000;fill-opacity:1;fill-rule:nonzero;stroke:none"
         id="text3479"><tspan
           x="0 6.6719999 13.344 20.016001"
           y="0"
           sodipodi:role="line"
           id="tspan3477">3000</tspan></text>
<text
         transform="matrix(1,0,0,-1,327.72,17.28)"
         style="font-variant:normal;font-weight:normal;font-size:12px;font-family:Helvetica;-inkscape-font-specification:Helvetica;writing-mode:lr-tb;fill:#000000;fill-opacity:1;fill-rule:nonzero;stroke:none"
         id="text3483"><tspan
           x="0 6.6719999 13.344 20.016001"
           y="0"
           sodipodi:role="line"
           id="tspan3481">4000</tspan></text>
<path
         d="M 36,45.07 V 271.73"
         style="fill:none;stroke:#000000;stroke-width:0.75;stroke-linecap:round;stroke-linejoin:round;stroke-miterlimit:10;stroke-dasharray:none;stroke-opacity:1"
         id="path3485"
         inkscape:connector-curvature="0" /><path
         d="M 36,45.07 H 28.8"
         style="fill:none;stroke:#000000;stroke-width:0.75;stroke-linecap:round;stroke-linejoin:round;stroke-miterlimit:10;stroke-dasharray:none;stroke-opacity:1"
         id="path3487"
         inkscape:connector-curvature="0" /><path
         d="M 36,90.4 H 28.8"
         style="fill:none;stroke:#000000;stroke-width:0.75;stroke-linecap:round;stroke-linejoin:round;stroke-miterlimit:10;stroke-dasharray:none;stroke-opacity:1"
         id="path3489"
         inkscape:connector-curvature="0" /><path
         d="M 36,135.73 H 28.8"
         style="fill:none;stroke:#000000;stroke-width:0.75;stroke-linecap:round;stroke-linejoin:round;stroke-miterlimit:10;stroke-dasharray:none;stroke-opacity:1"
         id="path3491"
         inkscape:connector-curvature="0" /><path
         d="M 36,181.07 H 28.8"
         style="fill:none;stroke:#000000;stroke-width:0.75;stroke-linecap:round;stroke-linejoin:round;stroke-miterlimit:10;stroke-dasharray:none;stroke-opacity:1"
         id="path3493"
         inkscape:connector-curvature="0" /><path
         d="M 36,226.4 H 28.8"
         style="fill:none;stroke:#000000;stroke-width:0.75;stroke-linecap:round;stroke-linejoin:round;stroke-miterlimit:10;stroke-dasharray:none;stroke-opacity:1"
         id="path3495"
         inkscape:connector-curvature="0" /><path
         d="M 36,271.73 H 28.8"
         style="fill:none;stroke:#000000;stroke-width:0.75;stroke-linecap:round;stroke-linejoin:round;stroke-miterlimit:10;stroke-dasharray:none;stroke-opacity:1"
         id="path3497"
         inkscape:connector-curvature="0" /><text
         transform="matrix(0,1,1,0,25.92,41.73)"
         style="font-variant:normal;font-weight:normal;font-size:12px;font-family:Helvetica;-inkscape-font-specification:Helvetica;writing-mode:lr-tb;fill:#000000;fill-opacity:1;fill-rule:nonzero;stroke:none"
         id="text3501"><tspan
           x="0"
           y="0"
           id="tspan3499">0</tspan></text>
<text
         transform="matrix(0,1,1,0,25.92,83.73)"
         style="font-variant:normal;font-weight:normal;font-size:12px;font-family:Helvetica;-inkscape-font-specification:Helvetica;writing-mode:lr-tb;fill:#000000;fill-opacity:1;fill-rule:nonzero;stroke:none"
         id="text3505"><tspan
           x="0 6.6719999"
           y="0"
           sodipodi:role="line"
           id="tspan3503">10</tspan></text>
<text
         transform="matrix(0,1,1,0,25.92,129.06)"
         style="font-variant:normal;font-weight:normal;font-size:12px;font-family:Helvetica;-inkscape-font-specification:Helvetica;writing-mode:lr-tb;fill:#000000;fill-opacity:1;fill-rule:nonzero;stroke:none"
         id="text3509"><tspan
           x="0 6.6719999"
           y="0"
           sodipodi:role="line"
           id="tspan3507">20</tspan></text>
<text
         transform="matrix(0,1,1,0,25.92,174.39)"
         style="font-variant:normal;font-weight:normal;font-size:12px;font-family:Helvetica;-inkscape-font-specification:Helvetica;writing-mode:lr-tb;fill:#000000;fill-opacity:1;fill-rule:nonzero;stroke:none"
         id="text3513"><tspan
           x="0 6.6719999"
           y="0"
           sodipodi:role="line"
           id="tspan3511">30</tspan></text>
<text
         transform="matrix(0,1,1,0,25.92,219.73)"
         style="font-variant:normal;font-weight:normal;font-size:12px;font-family:Helvetica;-inkscape-font-specification:Helvetica;writing-mode:lr-tb;fill:#000000;fill-opacity:1;fill-rule:nonzero;stroke:none"
         id="text3517"><tspan
           x="0 6.6719999"
           y="0"
           sodipodi:role="line"
           id="tspan3515">40</tspan></text>
<text
         transform="matrix(0,1,1,0,25.92,265.06)"
         style="font-variant:normal;font-weight:normal;font-size:12px;font-family:Helvetica;-inkscape-font-specification:Helvetica;writing-mode:lr-tb;fill:#000000;fill-opacity:1;fill-rule:nonzero;stroke:none"
         id="text3521"><tspan
           x="0 6.6719999"
           y="0"
           sodipodi:role="line"
           id="tspan3519">50</tspan></text>
<path
         d="M 36,36 H 352.8 V 280.8 H 36 V 36"
         style="fill:none;stroke:#000000;stroke-width:0.75;stroke-linecap:round;stroke-linejoin:round;stroke-miterlimit:10;stroke-dasharray:none;stroke-opacity:1"
         id="path3523"
         inkscape:connector-curvature="0" /></g><g
       id="g3525"><text
         transform="matrix(1,0,0,-1,179.39,5.76)"
         style="font-variant:normal;font-weight:normal;font-size:12px;font-family:Helvetica;-inkscape-font-specification:Helvetica;writing-mode:lr-tb;fill:#000000;fill-opacity:1;fill-rule:nonzero;stroke:none"
         id="text3529"><tspan
           x="0 3.336 6.6719999 10.008 20.004 26.676001"
           y="0"
           sodipodi:role="line"
           id="tspan3527">t [Ma]</tspan></text>
<text
         transform="matrix(0,1,1,0,12.05,146.44)"
         style="font-variant:normal;font-weight:normal;font-size:12px;font-family:Helvetica;-inkscape-font-specification:Helvetica;writing-mode:lr-tb;fill:#000000;fill-opacity:1;fill-rule:nonzero;stroke:none"
         id="text3533"><tspan
           x="0"
           y="0"
           id="tspan3531">2</tspan></text>
<text
         transform="matrix(0,1,1,0,12.05,153.11)"
         style="font-variant:normal;font-weight:normal;font-size:12px;font-family:Symbol;-inkscape-font-specification:Symbol;writing-mode:lr-tb;fill:#000000;fill-opacity:1;fill-rule:nonzero;stroke:none"
         id="text3537"><tspan
           x="0"
           y="0"
           id="tspan3535">σ</tspan></text>
<text
         transform="matrix(0,1,1,0,12.05,160.35)"
         style="font-variant:normal;font-weight:normal;font-size:12px;font-family:Helvetica;-inkscape-font-specification:Helvetica;writing-mode:lr-tb;fill:#000000;fill-opacity:1;fill-rule:nonzero;stroke:none"
         id="text3541"><tspan
           x="0 3.336 6.6719999"
           y="0"
           sodipodi:role="line"
           id="tspan3539">[t]</tspan></text>
</g><g
       id="g3543"><g
         id="g3545"
         clip-path="url(#clipPath3549)"><path
           d="m 47.73,48.39 0.15,2.44 0.15,1.68 0.15,1.35 0.15,1.17 0.14,1.04 0.15,0.94 0.15,0.88 0.15,0.81 0.15,0.76 0.15,0.72 0.14,0.69 0.15,0.65 0.15,0.62 0.15,0.6 0.15,0.58 0.14,0.56 0.15,0.54 0.15,0.52 0.15,0.5 0.15,0.5 0.15,0.47 0.14,0.47 0.15,0.45 0.15,0.44 0.15,0.43 0.15,0.42 0.14,0.41 0.15,0.41 0.15,0.39 0.15,0.39 0.15,0.38 0.15,0.37 0.14,0.36 0.15,0.36 0.15,0.35 0.15,0.34 0.15,0.34 0.14,0.34 0.15,0.32 0.15,0.32 0.15,0.32 0.15,0.31 0.15,0.31 0.14,0.3 0.15,0.3 0.15,0.29 0.15,0.29 0.15,0.29 0.15,0.28 0.73,1.34 5.82,8.25 5.83,5.64 5.82,4.1 5.82,3.05 5.82,2.28 5.83,1.7 5.82,1.24 5.82,0.89 5.83,0.6 5.82,0.37 5.82,0.19 5.83,0.03 5.82,-0.09 5.82,-0.19 5.83,-0.26 5.82,-0.33 5.82,-0.38 5.83,-0.41 5.82,-0.44 5.82,-0.47 5.83,-0.47 5.82,-0.48 5.82,-0.48 5.83,-0.47 5.82,-0.47 5.82,-0.47 5.83,-0.45 5.82,-0.43 5.82,-0.42 5.83,-0.41 5.82,-0.38 5.82,-0.37 5.83,-0.35 5.82,-0.33 5.82,-0.31 5.82,-0.29 5.83,-0.27 5.82,-0.25 5.82,-0.23 5.83,-0.21 5.82,-0.19 5.82,-0.17 5.83,-0.16 5.82,-0.13 5.82,-0.12 5.83,-0.1 5.82,-0.08 5.82,-0.07 5.83,-0.05"
           style="fill:none;stroke:#000000;stroke-width:1.5;stroke-linecap:round;stroke-linejoin:round;stroke-miterlimit:10;stroke-dasharray:0, 6;stroke-dashoffset:0;stroke-opacity:1"
           id="path3551"
           inkscape:connector-curvature="0" /><path
           d="m 88.63,288 2.04,-8.62 5.82,-20.24 5.82,-17.02 5.83,-14.56 5.82,-12.62 5.82,-11.06 5.83,-9.79 5.82,-8.72 5.82,-7.82 5.83,-7.05 5.82,-6.38 5.82,-5.8 5.83,-5.3 5.82,-4.83 5.82,-4.43 5.83,-4.07 5.82,-3.75 5.82,-3.44 5.83,-3.17 5.82,-2.93 5.82,-2.7 5.83,-2.5 5.82,-2.3 5.82,-2.12 5.83,-1.96 5.82,-1.8 5.82,-1.66 5.83,-1.53 5.82,-1.41 5.82,-1.29 5.82,-1.18 5.83,-1.08 5.82,-0.98 5.82,-0.9 5.83,-0.81 5.82,-0.73 5.82,-0.66 5.83,-0.59 5.82,-0.52 5.82,-0.46 5.83,-0.41 5.82,-0.35 5.82,-0.3 5.83,-0.25"
           style="fill:none;stroke:#000000;stroke-width:1.5;stroke-linecap:round;stroke-linejoin:round;stroke-miterlimit:10;stroke-dasharray:4.5, 7.5;stroke-dashoffset:0;stroke-opacity:1"
           id="path3553"
           inkscape:connector-curvature="0" /><path
           d="m 47.73,46.69 0.15,1.21 0.15,0.82 0.15,0.67 0.15,0.58 0.14,0.52 0.15,0.48 0.15,0.44 0.15,0.41 0.15,0.38 0.15,0.37 0.14,0.35 0.15,0.33 0.15,0.33 0.15,0.31 0.15,0.3 0.14,0.29 0.15,0.28 0.15,0.27 0.15,0.27 0.15,0.26 0.15,0.25 0.14,0.25 0.15,0.24 0.15,0.24 0.15,0.23 0.15,0.23 0.14,0.23 0.15,0.22 0.15,0.21 0.15,0.22 0.15,0.2 0.15,0.21 0.14,0.2 0.15,0.2 0.15,0.2 0.15,0.2 0.15,0.19 0.14,0.19 0.15,0.18 0.15,0.19 0.15,0.18 0.15,0.18 0.15,0.18 0.14,0.18 0.15,0.17 0.15,0.17 0.15,0.17 0.15,0.17 0.15,0.17 0.73,0.8 5.82,5.41 5.83,4.35 5.82,3.75 5.82,3.32 5.82,2.99 5.83,2.71 5.82,2.47 5.82,2.26 5.83,2.04 5.82,1.85 5.82,1.66 5.83,1.47 5.82,1.28 5.82,1.1 5.83,0.93 5.82,0.75 5.82,0.58 5.83,0.43 5.82,0.27 5.82,0.14 5.83,0.02 5.82,-0.1 5.82,-0.19 5.83,-0.28 5.82,-0.35 5.82,-0.41 5.83,-0.46 5.82,-0.49 5.82,-0.52 5.83,-0.53 5.82,-0.54 5.82,-0.53 5.83,-0.53 5.82,-0.52 5.82,-0.5 5.82,-0.48 5.83,-0.45 5.82,-0.43 5.82,-0.4 5.83,-0.37 5.82,-0.34 5.82,-0.3 5.83,-0.28 5.82,-0.25 5.82,-0.21 5.83,-0.18 5.82,-0.16 5.82,-0.12 5.83,-0.1"
           style="fill:none;stroke:#000000;stroke-width:1.5;stroke-linecap:round;stroke-linejoin:round;stroke-miterlimit:10;stroke-dasharray:none;stroke-opacity:1"
           id="path3555"
           inkscape:connector-curvature="0" /><path
           d="m 289.18,280.8 h 63.62 v -72 h -63.62 z"
           style="fill:none;stroke:#000000;stroke-width:0.75;stroke-linecap:round;stroke-linejoin:round;stroke-miterlimit:10;stroke-dasharray:none;stroke-opacity:1"
           id="path3557"
           inkscape:connector-curvature="0"
           sodipodi:nodetypes="ccccc" /><path
           d="m 301.48,266.4 h 21.6"
           style="fill:none;stroke:#000000;stroke-width:1.5;stroke-linecap:round;stroke-linejoin:round;stroke-miterlimit:10;stroke-dasharray:0, 6, 4.5, 6;stroke-dashoffset:0;stroke-opacity:1"
           id="path3559"
           inkscape:connector-curvature="0" /><path
           d="m 301.48,252 h 21.6"
           style="fill:none;stroke:#000000;stroke-width:1.5;stroke-linecap:round;stroke-linejoin:round;stroke-miterlimit:10;stroke-dasharray:0, 6;stroke-dashoffset:0;stroke-opacity:1"
           id="path3561"
           inkscape:connector-curvature="0" /><path
           d="m 301.48,237.6 h 21.6"
           style="fill:none;stroke:#000000;stroke-width:1.5;stroke-linecap:round;stroke-linejoin:round;stroke-miterlimit:10;stroke-dasharray:4.5, 7.5;stroke-dashoffset:0;stroke-opacity:1"
           id="path3563"
           inkscape:connector-curvature="0" /><path
           d="m 301.48,223.2 h 21.6"
           style="fill:none;stroke:#000000;stroke-width:1.5;stroke-linecap:round;stroke-linejoin:round;stroke-miterlimit:10;stroke-dasharray:none;stroke-opacity:1"
           id="path3565"
           inkscape:connector-curvature="0" /><text
           xml:space="preserve"
           style="font-style:normal;font-variant:normal;font-weight:normal;font-stretch:normal;font-size:13.14999962px;line-height:0;font-family:sans-serif;-inkscape-font-specification:'sans-serif, Normal';font-variant-ligatures:normal;font-variant-caps:normal;font-variant-numeric:normal;font-feature-settings:normal;text-align:start;letter-spacing:0px;word-spacing:0px;writing-mode:lr-tb;text-anchor:start;fill:#000000;fill-opacity:1;stroke:none;stroke-width:0.75"
           x="327.64853"
           y="-263.28714"
           id="text4128"
           transform="scale(1,-1)"><tspan
             sodipodi:role="line"
             id="tspan4126"
             x="327.64853"
             y="-263.28714"
             style="stroke-width:0.75">t<tspan
   style="font-size:64.99999762%;baseline-shift:sub"
   id="tspan4130">68</tspan></tspan></text>
<text
           transform="scale(1,-1)"
           id="text4136"
           y="-249.38614"
           x="328.19803"
           style="font-style:normal;font-variant:normal;font-weight:normal;font-stretch:normal;font-size:13.14999962px;line-height:0;font-family:sans-serif;-inkscape-font-specification:'sans-serif, Normal';font-variant-ligatures:normal;font-variant-caps:normal;font-variant-numeric:normal;font-feature-settings:normal;text-align:start;letter-spacing:0px;word-spacing:0px;writing-mode:lr-tb;text-anchor:start;fill:#000000;fill-opacity:1;stroke:none;stroke-width:0.75"
           xml:space="preserve"><tspan
             style="stroke-width:0.75"
             y="-249.38614"
             x="328.19803"
             id="tspan4134"
             sodipodi:role="line">t<tspan
   id="tspan4132"
   style="font-size:64.99999762%;baseline-shift:sub">75</tspan></tspan></text>
<text
           xml:space="preserve"
           style="font-style:normal;font-variant:normal;font-weight:normal;font-stretch:normal;font-size:13.14999962px;line-height:0;font-family:sans-serif;-inkscape-font-specification:'sans-serif, Normal';font-variant-ligatures:normal;font-variant-caps:normal;font-variant-numeric:normal;font-feature-settings:normal;text-align:start;letter-spacing:0px;word-spacing:0px;writing-mode:lr-tb;text-anchor:start;fill:#000000;fill-opacity:1;stroke:none;stroke-width:0.75"
           x="328.19803"
           y="-235.01981"
           id="text4142"
           transform="scale(1,-1)"><tspan
             sodipodi:role="line"
             id="tspan4140"
             x="328.19803"
             y="-235.01981"
             style="stroke-width:0.75">t<tspan
   style="font-size:64.99999762%;baseline-shift:sub"
   id="tspan4138">76</tspan></tspan></text>
<text
           transform="scale(1,-1)"
           id="text4148"
           y="-220.01981"
           x="328.19803"
           style="font-style:normal;font-variant:normal;font-weight:normal;font-stretch:normal;font-size:13.14999962px;line-height:0;font-family:sans-serif;-inkscape-font-specification:'sans-serif, Normal';font-variant-ligatures:normal;font-variant-caps:normal;font-variant-numeric:normal;font-feature-settings:normal;text-align:start;letter-spacing:0px;word-spacing:0px;writing-mode:lr-tb;text-anchor:start;fill:#000000;fill-opacity:1;stroke:none;stroke-width:0.75"
           xml:space="preserve"><tspan
             style="stroke-width:0.75"
             y="-220.01981"
             x="328.19803"
             id="tspan4146"
             sodipodi:role="line">t<tspan
   id="tspan4144"
   style="font-size:64.99999762%;baseline-shift:sub">c</tspan></tspan></text>
</g></g></g></svg>