<?xml version="1.0" encoding="UTF-8" standalone="no"?>
<!-- Created with Inkscape (http://www.inkscape.org/) -->

<svg
   xmlns:dc="http://purl.org/dc/elements/1.1/"
   xmlns:cc="http://creativecommons.org/ns#"
   xmlns:rdf="http://www.w3.org/1999/02/22-rdf-syntax-ns#"
   xmlns:svg="http://www.w3.org/2000/svg"
   xmlns="http://www.w3.org/2000/svg"
   xmlns:sodipodi="http://sodipodi.sourceforge.net/DTD/sodipodi-0.dtd"
   xmlns:inkscape="http://www.inkscape.org/namespaces/inkscape"
   version="1.1"
   id="svg2"
   xml:space="preserve"
   width="467.35733"
   height="372.112"
   viewBox="0 0 467.35733 372.112"
   sodipodi:docname="agerr.svg"
   inkscape:version="0.92.5 (2060ec1f9f, 2020-04-08)"><metadata
     id="metadata8"><rdf:RDF><cc:Work
         rdf:about=""><dc:format>image/svg+xml</dc:format><dc:type
           rdf:resource="http://purl.org/dc/dcmitype/StillImage" /><dc:title></dc:title></cc:Work></rdf:RDF></metadata><defs
     id="defs6"><clipPath
       clipPathUnits="userSpaceOnUse"
       id="clipPath20"><path
         d="M 36,36 H 352.8 V 280.8 H 36 Z"
         id="path18"
         inkscape:connector-curvature="0" /></clipPath><clipPath
       clipPathUnits="userSpaceOnUse"
       id="clipPath122"><path
         d="M 36,36 H 352.8 V 280.8 H 36 Z"
         id="path120"
         inkscape:connector-curvature="0" /></clipPath></defs><sodipodi:namedview
     pagecolor="#ffffff"
     bordercolor="#666666"
     borderopacity="1"
     objecttolerance="10"
     gridtolerance="10"
     guidetolerance="10"
     inkscape:pageopacity="0"
     inkscape:pageshadow="2"
     inkscape:window-width="1920"
     inkscape:window-height="1056"
     id="namedview4"
     showgrid="false"
     inkscape:zoom="2.3671875"
     inkscape:cx="258.19799"
     inkscape:cy="215.40499"
     inkscape:window-x="0"
     inkscape:window-y="24"
     inkscape:window-maximized="1"
     inkscape:current-layer="g118"
     fit-margin-top="0"
     fit-margin-left="0"
     fit-margin-right="0"
     fit-margin-bottom="0" /><g
     id="g10"
     inkscape:groupmode="layer"
     inkscape:label="agerr"
     transform="matrix(1.3333333,0,0,-1.3333333,-4.4026666,374.39999)"><g
       id="g12" /><g
       id="g14"><g
         id="g16"
         clip-path="url(#clipPath20)"><path
           d="m 47.73,50.22 5.99,10.47 5.99,5.93 5.98,4.67 5.99,4 5.99,3.56 5.98,3.25 5.99,3.02 5.98,2.82 5.99,2.67 5.99,2.54 5.98,2.43 5.99,2.33 5.99,2.24 5.98,2.17 5.99,2.1 5.99,2.03 5.98,1.97 5.99,1.92 5.98,1.88 5.99,1.82 5.99,1.78 5.98,1.74 5.99,1.71 5.99,1.66 5.98,1.63 5.99,1.6 5.99,1.57 5.98,1.54 5.99,1.51 5.99,1.48 5.98,1.46 5.99,1.43 5.98,1.4 5.99,1.38 5.99,1.36 5.98,1.34 5.99,1.32 5.99,1.29 5.98,1.27 5.99,1.26 5.99,1.24 5.98,1.21 5.99,1.2 5.98,1.18 5.99,1.17 5.99,1.15 5.98,1.13 5.99,1.11 5.99,1.1"
           style="fill:none;stroke:#000000;stroke-width:1.5;stroke-linecap:round;stroke-linejoin:round;stroke-miterlimit:10;stroke-dasharray:0, 6, 4.5, 6;stroke-dashoffset:0;stroke-opacity:1"
           id="path22"
           inkscape:connector-curvature="0" /></g></g><g
       id="g24"><path
   d="M 47,36 H 341.07"
   style="fill:none;stroke:#000000;stroke-width:0.75;stroke-linecap:round;stroke-linejoin:round;stroke-miterlimit:10;stroke-dasharray:none;stroke-opacity:1"
   id="path26"
   inkscape:connector-curvature="0" /><path
   d="M 47,36 V 28.8"
   style="fill:none;stroke:#000000;stroke-width:0.75;stroke-linecap:round;stroke-linejoin:round;stroke-miterlimit:10;stroke-dasharray:none;stroke-opacity:1"
   id="path28"
   inkscape:connector-curvature="0" /><path
   d="M 120.52,36 V 28.8"
   style="fill:none;stroke:#000000;stroke-width:0.75;stroke-linecap:round;stroke-linejoin:round;stroke-miterlimit:10;stroke-dasharray:none;stroke-opacity:1"
   id="path30"
   inkscape:connector-curvature="0" /><path
   d="M 194.03,36 V 28.8"
   style="fill:none;stroke:#000000;stroke-width:0.75;stroke-linecap:round;stroke-linejoin:round;stroke-miterlimit:10;stroke-dasharray:none;stroke-opacity:1"
   id="path32"
   inkscape:connector-curvature="0" /><path
   d="M 267.55,36 V 28.8"
   style="fill:none;stroke:#000000;stroke-width:0.75;stroke-linecap:round;stroke-linejoin:round;stroke-miterlimit:10;stroke-dasharray:none;stroke-opacity:1"
   id="path34"
   inkscape:connector-curvature="0" /><path
   d="M 341.07,36 V 28.8"
   style="fill:none;stroke:#000000;stroke-width:0.75;stroke-linecap:round;stroke-linejoin:round;stroke-miterlimit:10;stroke-dasharray:none;stroke-opacity:1"
   id="path36"
   inkscape:connector-curvature="0" /><text
   transform="matrix(1,0,0,-1,43.66,17.28)"
   style="font-variant:normal;font-weight:normal;font-size:12px;font-family:Helvetica;-inkscape-font-specification:Helvetica;writing-mode:lr-tb;fill:#000000;fill-opacity:1;fill-rule:nonzero;stroke:none"
   id="text40"><tspan
     x="0"
     y="0"
     id="tspan38">0</tspan></text>

<text
   transform="matrix(1,0,0,-1,107.17,17.28)"
   style="font-variant:normal;font-weight:normal;font-size:12px;font-family:Helvetica;-inkscape-font-specification:Helvetica;writing-mode:lr-tb;fill:#000000;fill-opacity:1;fill-rule:nonzero;stroke:none"
   id="text44"><tspan
     x="0 6.6719999 13.344 20.016001"
     y="0"
     sodipodi:role="line"
     id="tspan42">1000</tspan></text>

<text
   transform="matrix(1,0,0,-1,180.69,17.28)"
   style="font-variant:normal;font-weight:normal;font-size:12px;font-family:Helvetica;-inkscape-font-specification:Helvetica;writing-mode:lr-tb;fill:#000000;fill-opacity:1;fill-rule:nonzero;stroke:none"
   id="text48"><tspan
     x="0 6.6719999 13.344 20.016001"
     y="0"
     sodipodi:role="line"
     id="tspan46">2000</tspan></text>

<text
   transform="matrix(1,0,0,-1,254.21,17.28)"
   style="font-variant:normal;font-weight:normal;font-size:12px;font-family:Helvetica;-inkscape-font-specification:Helvetica;writing-mode:lr-tb;fill:#000000;fill-opacity:1;fill-rule:nonzero;stroke:none"
   id="text52"><tspan
     x="0 6.6719999 13.344 20.016001"
     y="0"
     sodipodi:role="line"
     id="tspan50">3000</tspan></text>

<text
   transform="matrix(1,0,0,-1,327.72,17.28)"
   style="font-variant:normal;font-weight:normal;font-size:12px;font-family:Helvetica;-inkscape-font-specification:Helvetica;writing-mode:lr-tb;fill:#000000;fill-opacity:1;fill-rule:nonzero;stroke:none"
   id="text56"><tspan
     x="0 6.6719999 13.344 20.016001"
     y="0"
     sodipodi:role="line"
     id="tspan54">4000</tspan></text>

<path
   d="M 36,45.07 V 271.73"
   style="fill:none;stroke:#000000;stroke-width:0.75;stroke-linecap:round;stroke-linejoin:round;stroke-miterlimit:10;stroke-dasharray:none;stroke-opacity:1"
   id="path58"
   inkscape:connector-curvature="0" /><path
   d="M 36,45.07 H 28.8"
   style="fill:none;stroke:#000000;stroke-width:0.75;stroke-linecap:round;stroke-linejoin:round;stroke-miterlimit:10;stroke-dasharray:none;stroke-opacity:1"
   id="path60"
   inkscape:connector-curvature="0" /><path
   d="M 36,90.4 H 28.8"
   style="fill:none;stroke:#000000;stroke-width:0.75;stroke-linecap:round;stroke-linejoin:round;stroke-miterlimit:10;stroke-dasharray:none;stroke-opacity:1"
   id="path62"
   inkscape:connector-curvature="0" /><path
   d="M 36,135.73 H 28.8"
   style="fill:none;stroke:#000000;stroke-width:0.75;stroke-linecap:round;stroke-linejoin:round;stroke-miterlimit:10;stroke-dasharray:none;stroke-opacity:1"
   id="path64"
   inkscape:connector-curvature="0" /><path
   d="M 36,181.07 H 28.8"
   style="fill:none;stroke:#000000;stroke-width:0.75;stroke-linecap:round;stroke-linejoin:round;stroke-miterlimit:10;stroke-dasharray:none;stroke-opacity:1"
   id="path66"
   inkscape:connector-curvature="0" /><path
   d="M 36,226.4 H 28.8"
   style="fill:none;stroke:#000000;stroke-width:0.75;stroke-linecap:round;stroke-linejoin:round;stroke-miterlimit:10;stroke-dasharray:none;stroke-opacity:1"
   id="path68"
   inkscape:connector-curvature="0" /><path
   d="M 36,271.73 H 28.8"
   style="fill:none;stroke:#000000;stroke-width:0.75;stroke-linecap:round;stroke-linejoin:round;stroke-miterlimit:10;stroke-dasharray:none;stroke-opacity:1"
   id="path70"
   inkscape:connector-curvature="0" /><text
   transform="matrix(0,1,1,0,25.92,41.73)"
   style="font-variant:normal;font-weight:normal;font-size:12px;font-family:Helvetica;-inkscape-font-specification:Helvetica;writing-mode:lr-tb;fill:#000000;fill-opacity:1;fill-rule:nonzero;stroke:none"
   id="text74"><tspan
     x="0"
     y="0"
     id="tspan72">0</tspan></text>

<text
   transform="matrix(0,1,1,0,25.92,83.73)"
   style="font-variant:normal;font-weight:normal;font-size:12px;font-family:Helvetica;-inkscape-font-specification:Helvetica;writing-mode:lr-tb;fill:#000000;fill-opacity:1;fill-rule:nonzero;stroke:none"
   id="text78"><tspan
     x="0 6.6719999"
     y="0"
     sodipodi:role="line"
     id="tspan76">10</tspan></text>

<text
   transform="matrix(0,1,1,0,25.92,129.06)"
   style="font-variant:normal;font-weight:normal;font-size:12px;font-family:Helvetica;-inkscape-font-specification:Helvetica;writing-mode:lr-tb;fill:#000000;fill-opacity:1;fill-rule:nonzero;stroke:none"
   id="text82"><tspan
     x="0 6.6719999"
     y="0"
     sodipodi:role="line"
     id="tspan80">20</tspan></text>

<text
   transform="matrix(0,1,1,0,25.92,174.39)"
   style="font-variant:normal;font-weight:normal;font-size:12px;font-family:Helvetica;-inkscape-font-specification:Helvetica;writing-mode:lr-tb;fill:#000000;fill-opacity:1;fill-rule:nonzero;stroke:none"
   id="text86"><tspan
     x="0 6.6719999"
     y="0"
     sodipodi:role="line"
     id="tspan84">30</tspan></text>

<text
   transform="matrix(0,1,1,0,25.92,219.73)"
   style="font-variant:normal;font-weight:normal;font-size:12px;font-family:Helvetica;-inkscape-font-specification:Helvetica;writing-mode:lr-tb;fill:#000000;fill-opacity:1;fill-rule:nonzero;stroke:none"
   id="text90"><tspan
     x="0 6.6719999"
     y="0"
     sodipodi:role="line"
     id="tspan88">40</tspan></text>

<text
   transform="matrix(0,1,1,0,25.92,265.06)"
   style="font-variant:normal;font-weight:normal;font-size:12px;font-family:Helvetica;-inkscape-font-specification:Helvetica;writing-mode:lr-tb;fill:#000000;fill-opacity:1;fill-rule:nonzero;stroke:none"
   id="text94"><tspan
     x="0 6.6719999"
     y="0"
     sodipodi:role="line"
     id="tspan92">50</tspan></text>

</g><g
       id="g98"><text
   transform="scale(1,-1)"
   style="font-variant:normal;font-weight:normal;font-size:12px;font-family:Helvetica;-inkscape-font-specification:Helvetica;writing-mode:lr-tb;fill:#000000;fill-opacity:1;fill-rule:nonzero;stroke:none"
   id="text102"
   x="179.39"
   y="-4.2599998"><tspan
     x="179.39 182.726 186.062 189.39799 199.394 206.06599"
     y="-4.2599998"
     sodipodi:role="line"
     id="tspan100">t [Ma]</tspan></text>

<text
   transform="matrix(0,1,1,0,12.05,146.44)"
   style="font-variant:normal;font-weight:normal;font-size:12px;font-family:Helvetica;-inkscape-font-specification:Helvetica;writing-mode:lr-tb;fill:#000000;fill-opacity:1;fill-rule:nonzero;stroke:none"
   id="text106"><tspan
     x="0"
     y="0"
     id="tspan104">2</tspan></text>

<text
   transform="matrix(0,1,1,0,12.05,153.11)"
   style="font-variant:normal;font-weight:normal;font-size:12px;font-family:Symbol;-inkscape-font-specification:Symbol;writing-mode:lr-tb;fill:#000000;fill-opacity:1;fill-rule:nonzero;stroke:none"
   id="text110"><tspan
     x="0"
     y="0"
     id="tspan108">σ</tspan></text>

<text
   transform="matrix(0,1,1,0,12.05,160.35)"
   style="font-variant:normal;font-weight:normal;font-size:12px;font-family:Helvetica;-inkscape-font-specification:Helvetica;writing-mode:lr-tb;fill:#000000;fill-opacity:1;fill-rule:nonzero;stroke:none"
   id="text114"><tspan
     x="0 3.336 6.6719999"
     y="0"
     sodipodi:role="line"
     id="tspan112">[t]</tspan></text>

</g><g
       id="g116"><g
         id="g118"
         clip-path="url(#clipPath122)"><path
   d="m 47.73,55.52 5.99,19.65 5.99,9.36 5.98,6.2 5.99,4.43 5.99,3.26 5.98,2.42 5.99,1.79 5.98,1.31 5.99,0.92 5.99,0.62 5.98,0.38 5.99,0.18 5.99,0.03 5.98,-0.1 5.99,-0.21 5.99,-0.28 5.98,-0.35 5.99,-0.39 5.98,-0.43 5.99,-0.46 5.99,-0.48 5.98,-0.48 5.99,-0.5 5.99,-0.49 5.98,-0.48 5.99,-0.48 5.99,-0.47 5.98,-0.46 5.99,-0.44 5.99,-0.42 5.98,-0.41 5.99,-0.38 5.98,-0.37 5.99,-0.34 5.99,-0.33 5.98,-0.3 5.99,-0.29 5.99,-0.26 5.98,-0.24 5.99,-0.22 5.99,-0.2 5.98,-0.18 5.99,-0.16 5.98,-0.15 5.99,-0.12 5.99,-0.1 5.98,-0.09 5.99,-0.07 5.99,-0.05"
   style="fill:none;stroke:#000000;stroke-width:1.5;stroke-linecap:round;stroke-linejoin:round;stroke-miterlimit:10;stroke-dasharray:0, 6;stroke-dashoffset:0;stroke-opacity:1"
   id="path124"
   inkscape:connector-curvature="0" /><path
   d="m 88.05,288 1.59,-6.83 5.98,-21.03 5.99,-17.58 5.99,-14.96 5.98,-12.93 5.99,-11.3 5.99,-9.96 5.98,-8.86 5.99,-7.93 5.99,-7.13 5.98,-6.44 5.99,-5.85 5.98,-5.32 5.99,-4.86 5.99,-4.44 5.98,-4.07 5.99,-3.74 5.99,-3.43 5.98,-3.16 5.99,-2.91 5.99,-2.68 5.98,-2.47 5.99,-2.27 5.99,-2.09 5.98,-1.93 5.99,-1.76 5.98,-1.63 5.99,-1.49 5.99,-1.37 5.98,-1.25 5.99,-1.14 5.99,-1.03 5.98,-0.94 5.99,-0.86 5.99,-0.76 5.98,-0.69 5.99,-0.62 5.98,-0.55 5.99,-0.48 5.99,-0.42 5.98,-0.36 5.99,-0.31 5.99,-0.26"
   style="fill:none;stroke:#000000;stroke-width:1.5;stroke-linecap:round;stroke-linejoin:round;stroke-miterlimit:10;stroke-dasharray:4.5, 7.5;stroke-dashoffset:0;stroke-opacity:1"
   id="path126"
   inkscape:connector-curvature="0" /><path
   d="m 47.73,50.22 5.99,10.47 5.99,5.91 5.98,4.63 5.99,3.93 5.99,3.46 5.98,3.1 5.99,2.81 5.98,2.55 5.99,2.32 5.99,2.11 5.98,1.89 5.99,1.7 5.99,1.49 5.98,1.3 5.99,1.11 5.99,0.92 5.98,0.74 5.99,0.57 5.98,0.4 5.99,0.25 5.99,0.11 5.98,-0.02 5.99,-0.13 5.99,-0.23 5.98,-0.32 5.99,-0.38 5.99,-0.44 5.98,-0.49 5.99,-0.52 5.99,-0.54 5.98,-0.55 5.99,-0.55 5.98,-0.55 5.99,-0.53 5.99,-0.52 5.98,-0.5 5.99,-0.48 5.99,-0.44 5.98,-0.42 5.99,-0.39 5.99,-0.35 5.98,-0.32 5.99,-0.29 5.98,-0.26 5.99,-0.22 5.99,-0.19 5.98,-0.16 5.99,-0.13 5.99,-0.1"
   style="fill:none;stroke:#000000;stroke-width:1.5;stroke-linecap:round;stroke-linejoin:round;stroke-miterlimit:10;stroke-dasharray:none;stroke-opacity:1"
   id="path128"
   inkscape:connector-curvature="0" /><path
   d="m 275.68,280.8 h 65.12 v -72 h -65.12 z"
   style="fill:none;stroke:#000000;stroke-width:0.75000002;stroke-linecap:round;stroke-linejoin:round;stroke-miterlimit:10;stroke-dasharray:none;stroke-opacity:1"
   id="path130"
   inkscape:connector-curvature="0"
   sodipodi:nodetypes="ccccc" /><path
   d="m 286.48,266.4 h 21.6"
   style="fill:none;stroke:#000000;stroke-width:1.5;stroke-linecap:round;stroke-linejoin:round;stroke-miterlimit:10;stroke-dasharray:0, 6, 4.5, 6;stroke-dashoffset:0;stroke-opacity:1"
   id="path132"
   inkscape:connector-curvature="0" /><path
   d="m 286.48,252 h 21.6"
   style="fill:none;stroke:#000000;stroke-width:1.5;stroke-linecap:round;stroke-linejoin:round;stroke-miterlimit:10;stroke-dasharray:0, 6;stroke-dashoffset:0;stroke-opacity:1"
   id="path134"
   inkscape:connector-curvature="0" /><path
   d="m 286.48,237.6 h 21.6"
   style="fill:none;stroke:#000000;stroke-width:1.5;stroke-linecap:round;stroke-linejoin:round;stroke-miterlimit:10;stroke-dasharray:4.5, 7.5;stroke-dashoffset:0;stroke-opacity:1"
   id="path136"
   inkscape:connector-curvature="0" /><path
   d="m 286.48,223.2 h 21.6"
   style="fill:none;stroke:#000000;stroke-width:1.5;stroke-linecap:round;stroke-linejoin:round;stroke-miterlimit:10;stroke-dasharray:none;stroke-opacity:1"
   id="path138"
   inkscape:connector-curvature="0" /><text
   transform="scale(1,-1)"
   style="font-variant:normal;font-weight:normal;font-size:13.19999981px;font-family:Helvetica;-inkscape-font-specification:Helvetica;writing-mode:lr-tb;fill:#000000;fill-opacity:1;fill-rule:nonzero;stroke:none;stroke-width:1.10000002"
   id="text142"
   x="318.2879"
   y="-263.31818"><tspan
     sodipodi:role="line"
     id="tspan140"
     x="318.2879"
     y="-263.31818"
     style="stroke-width:1.10000002">t<tspan
   style="font-size:8.57999992px;baseline-shift:sub;stroke-width:1.10000002"
   id="tspan892">68</tspan></tspan></text>

<text
   transform="scale(1,-1)"
   style="font-variant:normal;font-weight:normal;font-size:13.19999981px;font-family:Helvetica;-inkscape-font-specification:Helvetica;writing-mode:lr-tb;fill:#000000;fill-opacity:1;fill-rule:nonzero;stroke:none;stroke-width:1.10000002"
   id="text146"
   x="318.2879"
   y="-248.91817"><tspan
     sodipodi:role="line"
     id="tspan144"
     x="318.2879"
     y="-248.91817"
     style="stroke-width:1.10000002">t<tspan
   style="font-size:8.57999992px;baseline-shift:sub;stroke-width:1.10000002"
   id="tspan890">75</tspan></tspan></text>

<text
   transform="scale(1,-1)"
   style="font-variant:normal;font-weight:normal;font-size:13.19999981px;font-family:Helvetica;-inkscape-font-specification:Helvetica;writing-mode:lr-tb;fill:#000000;fill-opacity:1;fill-rule:nonzero;stroke:none;stroke-width:1.10000002"
   id="text150"
   x="318.2879"
   y="-234.51817"><tspan
     sodipodi:role="line"
     id="tspan148"
     x="318.2879"
     y="-234.51817"
     style="stroke-width:1.10000002">t<tspan
   style="font-size:8.57999992px;baseline-shift:sub;stroke-width:1.10000002"
   id="tspan888">76</tspan></tspan></text>

<text
   transform="scale(1,-1)"
   style="font-variant:normal;font-weight:normal;font-size:13.19999981px;font-family:Helvetica;-inkscape-font-specification:Helvetica;writing-mode:lr-tb;fill:#000000;fill-opacity:1;fill-rule:nonzero;stroke:none;stroke-width:1.10000002"
   id="text154"
   x="318.51877"
   y="-220.11816"><tspan
     x="318.51877"
     sodipodi:role="line"
     id="tspan152"
     y="-220.11816"
     style="stroke-width:1.10000002">t<tspan
   style="font-size:8.57999992px;baseline-shift:sub;stroke-width:1.10000002"
   id="tspan886">c</tspan></tspan></text>

</g></g></g></svg>