<?xml version="1.0" encoding="UTF-8" standalone="no"?>
<!-- Created with Inkscape (http://www.inkscape.org/) -->

<svg
   xmlns:dc="http://purl.org/dc/elements/1.1/"
   xmlns:cc="http://creativecommons.org/ns#"
   xmlns:rdf="http://www.w3.org/1999/02/22-rdf-syntax-ns#"
   xmlns:svg="http://www.w3.org/2000/svg"
   xmlns="http://www.w3.org/2000/svg"
   xmlns:sodipodi="http://sodipodi.sourceforge.net/DTD/sodipodi-0.dtd"
   xmlns:inkscape="http://www.inkscape.org/namespaces/inkscape"
   version="1.1"
   id="svg2"
   xml:space="preserve"
   width="473.13919"
   height="338.48853"
   viewBox="0 0 473.13919 338.48853"
   sodipodi:docname="KDE.svg"
   inkscape:version="0.92.5 (2060ec1f9f, 2020-04-08)"><metadata
     id="metadata8"><rdf:RDF><cc:Work
         rdf:about=""><dc:format>image/svg+xml</dc:format><dc:type
           rdf:resource="http://purl.org/dc/dcmitype/StillImage" /><dc:title></dc:title></cc:Work></rdf:RDF></metadata><defs
     id="defs6"><clipPath
       clipPathUnits="userSpaceOnUse"
       id="clipPath20"><path
         d="M 43.2,43.2 H 352.8 V 244.8 H 43.2 Z"
         id="path18"
         inkscape:connector-curvature="0" /></clipPath><clipPath
       clipPathUnits="userSpaceOnUse"
       id="clipPath116"><path
         d="M 43.2,43.2 H 352.8 V 244.8 H 43.2 Z"
         id="path114"
         inkscape:connector-curvature="0" /></clipPath></defs><sodipodi:namedview
     pagecolor="#ffffff"
     bordercolor="#666666"
     borderopacity="1"
     objecttolerance="10"
     gridtolerance="10"
     guidetolerance="10"
     inkscape:pageopacity="0"
     inkscape:pageshadow="2"
     inkscape:window-width="1920"
     inkscape:window-height="1056"
     id="namedview4"
     showgrid="false"
     fit-margin-top="0"
     fit-margin-left="0"
     fit-margin-right="0"
     fit-margin-bottom="0"
     inkscape:zoom="1.8900375"
     inkscape:cx="260.63355"
     inkscape:cy="174.0498"
     inkscape:window-x="0"
     inkscape:window-y="24"
     inkscape:window-maximized="1"
     inkscape:current-layer="g10"
     showguides="true"
     inkscape:guide-bbox="true" /><g
     id="g10"
     inkscape:groupmode="layer"
     inkscape:label="KDE"
     transform="matrix(1.3333333,0,0,-1.3333333,1.0191995,337.42666)"><path
   style="fill:none;stroke:#000000;stroke-width:1.125;stroke-linecap:round;stroke-linejoin:round;stroke-miterlimit:10;stroke-dasharray:0, 4.50000011, 3.37500008, 4.50000011;stroke-dashoffset:0;stroke-opacity:1"
   d="m 54.67,52.77 c 4.660154,0.652551 10.373475,1.763386 11.442612,7.268083 C 71.681897,80.375778 71.030415,101.82851 75.42,122.4 c 1.346772,5.61274 3.880846,-0.92786 4.49,-3.38 1.768522,-5.58802 4.177323,1.2685 4.18353,3.9384 1.79456,8.26053 2.003917,16.91287 4.79647,24.9216 2.961221,0.0421 2.635103,-6.28418 3.605343,-8.93996 1.917893,-11.93197 4.314526,-23.82018 8.932617,-35.03632 4.57852,-13.748551 4.99788,-28.836843 11.58204,-41.88372 2.56567,-5.366211 9.19063,-3.401311 12.9,-0.47 13.38642,8.491464 15.68418,25.513363 20.76,39.22 1.55763,5.67447 5.07967,0.30865 5.2248,-2.92303 2.8401,-9.008706 2.93907,-19.209985 8.2352,-27.24697 4.54214,-4.153181 10.64843,0.793928 11.78,5.71 6.51808,18.955255 7.24029,39.25686 10.60125,58.89391 1.08791,11.07201 5.37948,21.36823 7.91875,32.09609 3.5174,16.92245 3.82048,34.42684 8.09299,51.18048 2.25686,4.64697 3.76448,-3.35823 4.08315,-5.47994 6.26482,-40.0617 6.14642,-80.85625 12.50386,-120.91054 2.07411,-9.845048 4.33133,-20.770977 11.78,-28.05 6.63333,-3.84721 16.59077,-2.82239 20.58214,4.375909 3.92887,4.957519 4.92566,12.332435 10.27786,16.004091 4.82415,-0.623866 5.77622,-7.006512 8.15232,-10.503841 C 271.55852,61.684609 284.6047,53.274947 298.14,53.52 c 7.12818,-0.230266 14.30635,1.128548 21.31,-0.96 7.27482,-0.83034 14.54406,-1.835325 21.88,-1.89"
   id="path22"
   inkscape:connector-curvature="0" /><path
   inkscape:connector-curvature="0"
   id="path26"
   style="fill:none;stroke:#000000;stroke-width:0.75;stroke-linecap:round;stroke-linejoin:round;stroke-miterlimit:10;stroke-dasharray:none;stroke-opacity:1"
   d="M 54.67,43.2 H 341.33" /><path
   inkscape:connector-curvature="0"
   id="path28"
   style="fill:none;stroke:#000000;stroke-width:0.75;stroke-linecap:round;stroke-linejoin:round;stroke-miterlimit:10;stroke-dasharray:none;stroke-opacity:1"
   d="M 54.67,43.2 V 36" /><path
   inkscape:connector-curvature="0"
   id="path30"
   style="fill:none;stroke:#000000;stroke-width:0.75;stroke-linecap:round;stroke-linejoin:round;stroke-miterlimit:10;stroke-dasharray:none;stroke-opacity:1"
   d="M 95.62,43.2 V 36" /><path
   inkscape:connector-curvature="0"
   id="path32"
   style="fill:none;stroke:#000000;stroke-width:0.75;stroke-linecap:round;stroke-linejoin:round;stroke-miterlimit:10;stroke-dasharray:none;stroke-opacity:1"
   d="M 136.57,43.2 V 36" /><path
   inkscape:connector-curvature="0"
   id="path34"
   style="fill:none;stroke:#000000;stroke-width:0.75;stroke-linecap:round;stroke-linejoin:round;stroke-miterlimit:10;stroke-dasharray:none;stroke-opacity:1"
   d="M 177.52,43.2 V 36" /><path
   inkscape:connector-curvature="0"
   id="path36"
   style="fill:none;stroke:#000000;stroke-width:0.75;stroke-linecap:round;stroke-linejoin:round;stroke-miterlimit:10;stroke-dasharray:none;stroke-opacity:1"
   d="M 218.48,43.2 V 36" /><path
   inkscape:connector-curvature="0"
   id="path38"
   style="fill:none;stroke:#000000;stroke-width:0.75;stroke-linecap:round;stroke-linejoin:round;stroke-miterlimit:10;stroke-dasharray:none;stroke-opacity:1"
   d="M 259.43,43.2 V 36" /><path
   inkscape:connector-curvature="0"
   id="path40"
   style="fill:none;stroke:#000000;stroke-width:0.75;stroke-linecap:round;stroke-linejoin:round;stroke-miterlimit:10;stroke-dasharray:none;stroke-opacity:1"
   d="M 300.38,43.2 V 36" /><path
   inkscape:connector-curvature="0"
   id="path42"
   style="fill:none;stroke:#000000;stroke-width:0.75;stroke-linecap:round;stroke-linejoin:round;stroke-miterlimit:10;stroke-dasharray:none;stroke-opacity:1"
   d="M 341.33,43.2 V 36" /><text
   id="text46"
   style="font-variant:normal;font-weight:normal;font-size:12px;font-family:Helvetica;-inkscape-font-specification:Helvetica;writing-mode:lr-tb;fill:#000000;fill-opacity:1;fill-rule:nonzero;stroke:none"
   transform="scale(1,-1)"
   x="51.330002"
   y="-17.280001"><tspan
     id="tspan44"
     y="-17.280001"
     x="51.330002">0</tspan></text>

<text
   id="text50"
   style="font-variant:normal;font-weight:normal;font-size:12px;font-family:Helvetica;-inkscape-font-specification:Helvetica;writing-mode:lr-tb;fill:#000000;fill-opacity:1;fill-rule:nonzero;stroke:none"
   transform="scale(1,-1)"
   x="85.610001"
   y="-17.280001"><tspan
     id="tspan48"
     sodipodi:role="line"
     y="-17.280001"
     x="85.610001 92.281998 98.954002">500</tspan></text>

<text
   id="text54"
   style="font-variant:normal;font-weight:normal;font-size:12px;font-family:Helvetica;-inkscape-font-specification:Helvetica;writing-mode:lr-tb;fill:#000000;fill-opacity:1;fill-rule:nonzero;stroke:none"
   transform="scale(1,-1)"
   x="123.23"
   y="-17.280001"><tspan
     id="tspan52"
     sodipodi:role="line"
     y="-17.280001"
     x="123.23 129.90199 136.57401 143.246">1000</tspan></text>

<text
   id="text58"
   style="font-variant:normal;font-weight:normal;font-size:12px;font-family:Helvetica;-inkscape-font-specification:Helvetica;writing-mode:lr-tb;fill:#000000;fill-opacity:1;fill-rule:nonzero;stroke:none"
   transform="scale(1,-1)"
   x="164.17999"
   y="-17.280001"><tspan
     id="tspan56"
     sodipodi:role="line"
     y="-17.280001"
     x="164.17999 170.85201 177.524 184.196">1500</tspan></text>

<text
   id="text62"
   style="font-variant:normal;font-weight:normal;font-size:12px;font-family:Helvetica;-inkscape-font-specification:Helvetica;writing-mode:lr-tb;fill:#000000;fill-opacity:1;fill-rule:nonzero;stroke:none"
   transform="scale(1,-1)"
   x="205.13"
   y="-17.280001"><tspan
     id="tspan60"
     sodipodi:role="line"
     y="-17.280001"
     x="205.13 211.802 218.474 225.146">2000</tspan></text>

<text
   id="text66"
   style="font-variant:normal;font-weight:normal;font-size:12px;font-family:Helvetica;-inkscape-font-specification:Helvetica;writing-mode:lr-tb;fill:#000000;fill-opacity:1;fill-rule:nonzero;stroke:none"
   transform="scale(1,-1)"
   x="246.08"
   y="-17.280001"><tspan
     id="tspan64"
     sodipodi:role="line"
     y="-17.280001"
     x="246.08 252.752 259.42401 266.09601">2500</tspan></text>

<text
   id="text70"
   style="font-variant:normal;font-weight:normal;font-size:12px;font-family:Helvetica;-inkscape-font-specification:Helvetica;writing-mode:lr-tb;fill:#000000;fill-opacity:1;fill-rule:nonzero;stroke:none"
   transform="scale(1,-1)"
   x="287.04001"
   y="-17.280001"><tspan
     id="tspan68"
     sodipodi:role="line"
     y="-17.280001"
     x="287.04001 293.71201 300.384 307.056">3000</tspan></text>

<text
   id="text74"
   style="font-variant:normal;font-weight:normal;font-size:12px;font-family:Helvetica;-inkscape-font-specification:Helvetica;writing-mode:lr-tb;fill:#000000;fill-opacity:1;fill-rule:nonzero;stroke:none"
   transform="scale(1,-1)"
   x="327.98999"
   y="-17.280001"><tspan
     id="tspan72"
     sodipodi:role="line"
     y="-17.280001"
     x="327.98999 334.66199 341.33401 348.00601">3500</tspan></text>

<path
   inkscape:connector-curvature="0"
   id="path76"
   style="fill:none;stroke:#000000;stroke-width:0.75;stroke-linecap:round;stroke-linejoin:round;stroke-miterlimit:10;stroke-dasharray:none;stroke-opacity:1"
   d="M 43.2,50.32 V 235.24" /><path
   inkscape:connector-curvature="0"
   id="path78"
   style="fill:none;stroke:#000000;stroke-width:0.75;stroke-linecap:round;stroke-linejoin:round;stroke-miterlimit:10;stroke-dasharray:none;stroke-opacity:1"
   d="M 43.2,50.32 H 36" /><path
   inkscape:connector-curvature="0"
   id="path80"
   style="fill:none;stroke:#000000;stroke-width:0.75;stroke-linecap:round;stroke-linejoin:round;stroke-miterlimit:10;stroke-dasharray:none;stroke-opacity:1"
   d="M 43.2,111.96 H 36" /><path
   inkscape:connector-curvature="0"
   id="path82"
   style="fill:none;stroke:#000000;stroke-width:0.75;stroke-linecap:round;stroke-linejoin:round;stroke-miterlimit:10;stroke-dasharray:none;stroke-opacity:1"
   d="M 43.2,173.6 H 36" /><path
   inkscape:connector-curvature="0"
   id="path84"
   style="fill:none;stroke:#000000;stroke-width:0.75;stroke-linecap:round;stroke-linejoin:round;stroke-miterlimit:10;stroke-dasharray:none;stroke-opacity:1"
   d="M 43.2,235.24 H 36" /><text
   id="text88"
   style="font-variant:normal;font-weight:normal;font-size:12px;font-family:Helvetica;-inkscape-font-specification:Helvetica;writing-mode:lr-tb;fill:#000000;fill-opacity:1;fill-rule:nonzero;stroke:none"
   transform="matrix(0,1,1,0,0,0)"
   x="46.970001"
   y="25.92"><tspan
     id="tspan86"
     sodipodi:role="line"
     y="25.92"
     x="46.970001">0</tspan></text>

<text
   id="text92"
   style="font-variant:normal;font-weight:normal;font-size:12px;font-family:Helvetica;-inkscape-font-specification:Helvetica;writing-mode:lr-tb;fill:#000000;fill-opacity:1;fill-rule:nonzero;stroke:none"
   transform="matrix(0,1,1,0,0,0)"
   x="93.610001"
   y="25.92"><tspan
     id="tspan90"
     sodipodi:role="line"
     y="25.92"
     x="93.610001 100.282 103.618 110.29 116.962 123.634">0.0005</tspan></text>

<text
   id="text96"
   style="font-variant:normal;font-weight:normal;font-size:12px;font-family:Helvetica;-inkscape-font-specification:Helvetica;writing-mode:lr-tb;fill:#000000;fill-opacity:1;fill-rule:nonzero;stroke:none"
   transform="matrix(0,1,1,0,0,0)"
   x="155.25"
   y="25.92"><tspan
     id="tspan94"
     sodipodi:role="line"
     y="25.92"
     x="155.25 161.922 165.258 171.92999 178.60201 185.274">0.0010</tspan></text>

<text
   id="text100"
   style="font-variant:normal;font-weight:normal;font-size:12px;font-family:Helvetica;-inkscape-font-specification:Helvetica;writing-mode:lr-tb;fill:#000000;fill-opacity:1;fill-rule:nonzero;stroke:none"
   transform="matrix(0,1,1,0,0,0)"
   x="216.89"
   y="25.92"><tspan
     id="tspan98"
     sodipodi:role="line"
     y="25.92"
     x="216.89 223.562 226.89799 233.57001 240.242 246.914">0.0015</tspan></text>

<text
   id="text108"
   style="font-variant:normal;font-weight:normal;font-size:14.39999962px;font-family:Helvetica;-inkscape-font-specification:Helvetica;writing-mode:lr-tb;fill:#000000;fill-opacity:1;fill-rule:nonzero;stroke:none;stroke-width:1.20000005"
   transform="matrix(0,1,1,0,0,0)"
   x="121.1836"
   y="9.7332001"><tspan
     id="tspan106"
     sodipodi:role="line"
     y="9.7332001"
     x="121.1836 129.19 137.1964 145.20279 152.4028 155.59959 159.6028"
     style="stroke-width:1.20000005">density</tspan></text>

<path
   style="fill:none;stroke:#000000;stroke-width:1.31250003;stroke-linecap:round;stroke-linejoin:round;stroke-miterlimit:10;stroke-dasharray:0,5.25000026;stroke-dashoffset:0;stroke-opacity:1"
   d="m 54.67,52.59 c 4.604315,0.427759 10.504303,0.953751 11.78,6.44 5.726336,19.768701 4.982058,40.748992 9.53,60.76 1.318738,5.07427 3.782179,-0.85769 4.49,-3.09 2.674943,-5.12966 4.074587,3.52788 4.474052,5.89225 1.564183,7.11215 1.812836,14.61562 4.505948,21.41775 3.049287,-0.0498 2.723169,-6.2276 3.787006,-8.8252 1.823381,-11.28789 5.126945,-22.20598 9.112994,-32.8948 4.33386,-13.471559 4.92698,-28.263421 11.78,-40.83 3.45178,-6.056931 11.2366,-2.933184 15.15,0.93 11.69006,9.698766 13.26719,25.745913 18.85372,38.8931 3.01521,3.21866 3.99074,-4.260072 4.70628,-6.3431 2.56289,-9.001643 2.72803,-19.071715 7.85,-27.11 4.78074,-4.385043 11.2303,0.988965 12.35,6.16 6.20165,19.348167 6.7071,39.92231 10.02342,59.85818 0.88502,9.34372 4.30706,18.06284 6.95286,26.96269 4.64455,22.38867 4.27826,45.54431 9.04486,67.88886 2.25263,5.13639 3.74923,-3.81393 4.08389,-6.03541 6.3579,-42.63285 6.02828,-85.97284 12.1928,-128.628749 C 217.26105,83.48393 220.13185,72.439309 226.89,63.91 c 4.22645,-2.87796 10.33754,-3.17811 15.15,-1.66 8.77614,3.959159 9.61109,14.919463 13.46,22.64 0.56077,3.11962 4.49057,6.653369 6.17,2.25 3.8972,-7.719164 5.29988,-17.330642 12.91,-22.58 4.14342,-4.787041 9.38965,-8.465816 15.7,-9.72 7.14037,-2.578807 14.63776,-1.198263 21.88,-0.17 9.7094,-1.325132 19.26522,-3.885924 29.17,-3.87"
   id="path118"
   inkscape:connector-curvature="0" /><path
   style="fill:none;stroke:#000000;stroke-width:1.125;stroke-linecap:round;stroke-linejoin:round;stroke-miterlimit:10;stroke-dasharray:3.37500008, 5.62500014;stroke-dashoffset:0;stroke-opacity:1"
   d="m 54.67,51.52 c 5.457721,-0.05115 11.145486,2.323644 12.9,7.92 6.39006,16.252464 6.952275,34.28473 14.59,50.14 3.694817,9.10551 4.069837,19.33514 8.41,28.15 3.279938,1.6512 3.935426,-4.52521 5.05,-6.72 6.33802,-18.60503 10.49421,-37.83095 15.92338,-56.691563 1.99861,-6.122725 5.05125,-15.438241 13.24662,-14.088437 10.57878,1.766504 14.33448,13.37662 17.87241,22.023564 2.33872,5.427776 3.18102,11.707986 6.80759,16.456436 3.66255,0.058 3.61478,-5.83833 4.84489,-8.5145 2.72525,-8.209386 2.82735,-18.366607 9.74511,-24.4155 3.68474,-3.711907 8.78393,-0.494675 9.80777,3.851163 5.97282,17.689597 6.33572,36.653577 9.70792,54.914827 1.50527,12.0161 7.62392,22.88125 8.34367,35.06147 3.36822,24.80847 3.62224,50.00467 8.04064,74.66254 1.42043,6.45635 4.33701,-0.96953 4.34331,-4.00488 5.02476,-32.26608 5.59369,-65.01845 8.42508,-97.51404 2.02024,-22.44949 2.7944,-46.19868 14.16161,-66.29108 2.9564,-4.315496 8.94666,-3.639346 13.46,-4.86 8.51874,-0.563195 10.85601,9.027388 12.91,15.38 2.17562,5.409427 2.423,12.29118 6.73,16.45 4.03602,-1.92679 4.0596,-7.86255 5.82005,-11.642645 1.63484,-5.886101 4.11474,-12.026587 9.88995,-14.927355 4.48736,-4.947441 9.46628,-9.785559 16.27,-11.25 6.58107,-2.031768 13.59337,-2.706183 20.19,-0.35 8.40107,0.8424 16.28638,-3.519163 24.69,-3.65 1.49075,-0.151385 2.98419,-0.271505 4.48,-0.36"
   id="path120"
   inkscape:connector-curvature="0" /><path
   style="fill:none;stroke:#000000;stroke-width:1.125;stroke-linecap:round;stroke-linejoin:round;stroke-miterlimit:10;stroke-dasharray:none;stroke-opacity:1"
   d="m 54.67,52.78 c 4.658804,0.649256 10.374541,1.773028 11.443231,7.269831 C 71.684097,80.383263 71.030195,101.83249 75.42,122.4 c 1.346066,5.61691 3.88042,-0.91091 4.49,-3.37 1.774282,-5.58672 4.175046,1.2707 4.184235,3.94204 1.793587,8.25584 2.000532,16.90568 4.795765,24.90796 2.964867,0.0391 2.633243,-6.29416 3.606026,-8.9536 1.915781,-11.92846 4.313143,-23.81281 8.933494,-35.02414 4.57752,-13.74868 5.00137,-28.833822 11.58048,-41.88226 2.54616,-5.395472 9.21723,-3.373063 12.9,-0.42 13.31988,8.434949 15.70749,25.32953 20.6903,38.99326 1.20973,5.40727 4.9781,1.37629 5.1197,-2.09326 2.96598,-9.20172 3.01028,-19.647632 8.41,-27.88 4.51012,-4.098591 10.64501,0.668629 11.78,5.6 6.47414,18.72778 7.20462,38.79774 10.50105,58.21262 1.09383,10.8475 4.99108,21.03099 7.74454,31.48295 3.78042,17.36425 3.9985,35.37079 8.3666,52.59721 2.22415,4.70423 3.78096,-3.2519 4.08643,-5.38741 6.2814,-40.12136 6.15981,-80.97698 12.50138,-121.09537 2.07234,-9.904098 4.32965,-20.874268 11.78,-28.23 6.61281,-3.75233 16.77324,-3.088811 20.76,4.21 3.95816,5.317467 4.86511,12.859963 10.1,17.12 4.5995,-0.241099 5.4528,-6.516761 7.5765,-9.773688 C 271.68854,59.277083 290.43203,50.213427 307.11,53.91 c 8.31163,1.170237 16.36965,-2.482166 24.69,-2.6 3.16826,-0.308878 6.35057,-0.431631 9.53,-0.56"
   id="path122"
   inkscape:connector-curvature="0" />



<text
   y="-2.3427997"
   x="169.21561"
   transform="scale(1,-1)"
   style="font-variant:normal;font-weight:normal;font-size:14.39999962px;font-family:Helvetica;-inkscape-font-specification:Helvetica;writing-mode:lr-tb;fill:#000000;fill-opacity:1;fill-rule:nonzero;stroke:none;stroke-width:1.20000005"
   id="text1034"><tspan
     style="stroke-width:1.20000005"
     x="169.21561"
     y="-2.3427997"
     sodipodi:role="line"
     id="tspan1032">age [Ma]</tspan></text>

<path
   inkscape:connector-curvature="0"
   id="path132"
   style="fill:none;stroke:#000000;stroke-width:1.5;stroke-linecap:round;stroke-linejoin:round;stroke-miterlimit:10;stroke-dasharray:0, 6, 4.5, 6;stroke-dashoffset:0;stroke-opacity:1"
   d="m 296.03953,237.45105 h 21.6" /><path
   inkscape:connector-curvature="0"
   id="path134"
   style="fill:none;stroke:#000000;stroke-width:1.875;stroke-linecap:round;stroke-linejoin:round;stroke-miterlimit:10;stroke-dasharray:0, 7.50000038;stroke-dashoffset:0;stroke-opacity:1"
   d="m 296.03953,223.05105 h 21.6" /><path
   inkscape:connector-curvature="0"
   id="path136"
   style="fill:none;stroke:#000000;stroke-width:1.5;stroke-linecap:round;stroke-linejoin:round;stroke-miterlimit:10;stroke-dasharray:4.5, 7.5;stroke-dashoffset:0;stroke-opacity:1"
   d="m 296.03953,208.65105 h 21.6" /><path
   sodipodi:nodetypes="cc"
   inkscape:connector-curvature="0"
   id="path138"
   style="fill:none;stroke:#000000;stroke-width:1.5;stroke-linecap:round;stroke-linejoin:round;stroke-miterlimit:10;stroke-dasharray:none;stroke-opacity:1"
   d="m 296.03953,194.25105 h 17.1" /><text
   y="-234.36923"
   x="327.84744"
   id="text142-7"
   style="font-variant:normal;font-weight:normal;font-size:13.19999886px;font-family:Helvetica;-inkscape-font-specification:Helvetica;writing-mode:lr-tb;fill:#000000;fill-opacity:1;fill-rule:nonzero;stroke:none;stroke-width:1.10000002"
   transform="scale(1,-1)"><tspan
     style="stroke-width:1.10000002"
     y="-234.36923"
     x="327.84744"
     id="tspan140-5"
     sodipodi:role="line">t<tspan
   id="tspan892"
   style="font-size:8.57999992px;baseline-shift:sub;stroke-width:1.10000002">68</tspan></tspan></text>
<text
   y="-219.96922"
   x="327.84744"
   id="text146-3"
   style="font-variant:normal;font-weight:normal;font-size:13.19999886px;font-family:Helvetica;-inkscape-font-specification:Helvetica;writing-mode:lr-tb;fill:#000000;fill-opacity:1;fill-rule:nonzero;stroke:none;stroke-width:1.10000002"
   transform="scale(1,-1)"><tspan
     style="stroke-width:1.10000002"
     y="-219.96922"
     x="327.84744"
     id="tspan144-5"
     sodipodi:role="line">t<tspan
   id="tspan890"
   style="font-size:8.57999992px;baseline-shift:sub;stroke-width:1.10000002">75</tspan></tspan></text>
<text
   y="-205.56923"
   x="327.84744"
   id="text150"
   style="font-variant:normal;font-weight:normal;font-size:13.19999886px;font-family:Helvetica;-inkscape-font-specification:Helvetica;writing-mode:lr-tb;fill:#000000;fill-opacity:1;fill-rule:nonzero;stroke:none;stroke-width:1.10000002"
   transform="scale(1,-1)"><tspan
     style="stroke-width:1.10000002"
     y="-205.56923"
     x="327.84744"
     id="tspan148"
     sodipodi:role="line">t<tspan
   id="tspan888"
   style="font-size:8.57999992px;baseline-shift:sub;stroke-width:1.10000002">76</tspan></tspan></text>
<text
   y="-191.16922"
   x="328.07831"
   id="text154"
   style="font-variant:normal;font-weight:normal;font-size:13.19999886px;font-family:Helvetica;-inkscape-font-specification:Helvetica;writing-mode:lr-tb;fill:#000000;fill-opacity:1;fill-rule:nonzero;stroke:none;stroke-width:1.10000002"
   transform="scale(1,-1)"><tspan
     style="stroke-width:1.10000002"
     y="-191.16922"
     id="tspan152"
     sodipodi:role="line"
     x="328.07831">t<tspan
   id="tspan886"
   style="font-size:8.57999992px;baseline-shift:sub;stroke-width:1.10000002">c</tspan></tspan></text>
</g></svg>