<?xml version="1.0" encoding="UTF-8" standalone="no"?>
<!-- Created with Inkscape (http://www.inkscape.org/) -->

<svg
   xmlns:dc="http://purl.org/dc/elements/1.1/"
   xmlns:cc="http://creativecommons.org/ns#"
   xmlns:rdf="http://www.w3.org/1999/02/22-rdf-syntax-ns#"
   xmlns:svg="http://www.w3.org/2000/svg"
   xmlns="http://www.w3.org/2000/svg"
   xmlns:sodipodi="http://sodipodi.sourceforge.net/DTD/sodipodi-0.dtd"
   xmlns:inkscape="http://www.inkscape.org/namespaces/inkscape"
   version="1.1"
   id="svg2"
   xml:space="preserve"
   width="631.0589"
   height="569.07379"
   viewBox="0 0 631.0589 569.07379"
   sodipodi:docname="TW1500.svg"
   inkscape:version="0.92.5 (2060ec1f9f, 2020-04-08)"><metadata
     id="metadata8"><rdf:RDF><cc:Work
         rdf:about=""><dc:format>image/svg+xml</dc:format><dc:type
           rdf:resource="http://purl.org/dc/dcmitype/StillImage" /><dc:title></dc:title></cc:Work></rdf:RDF></metadata><defs
     id="defs6" /><sodipodi:namedview
     pagecolor="#ffffff"
     bordercolor="#666666"
     borderopacity="1"
     objecttolerance="10"
     gridtolerance="10"
     guidetolerance="10"
     inkscape:pageopacity="0"
     inkscape:pageshadow="2"
     inkscape:window-width="1920"
     inkscape:window-height="1056"
     id="namedview4"
     showgrid="false"
     inkscape:zoom="1.5973324"
     inkscape:cx="315.52945"
     inkscape:cy="284.5369"
     inkscape:window-x="0"
     inkscape:window-y="24"
     inkscape:window-maximized="1"
     inkscape:current-layer="g10" /><g
     id="g10"
     inkscape:groupmode="layer"
     inkscape:label="TW1500"
     transform="matrix(1.3333333,0,0,1.3333333,0,1.2226845e-5)"><g
       id="g12"><g
         id="g14"
         transform="scale(1,-1)"><path
           d="m 472.535,-372.277 -46.91,40.82 -55.27,47.898 -55.019,48.332 -54.762,48.77 -54.519,49.199 -54.278,49.641 -54.031,50.09 -39.93,36.769"
           style="fill:none;stroke:#010101;stroke-width:1.5;stroke-linecap:round;stroke-linejoin:round;stroke-miterlimit:10;stroke-dasharray:none;stroke-opacity:1"
           id="path16"
           inkscape:connector-curvature="0" /></g><g
         id="g18"
         transform="scale(1,-1)"><path
           d="m 204.824,-86.297 c -0.152,10.988 -1.551,22.121 -5.734,32.344 -2.746,6.777 -6.848,13.199 -12.805,17.574 -3.937,2.758 -8.691,4.457 -13.539,4.277 -5.625,-0.062 -10.976,-2.382 -15.566,-5.527 -8.364,-5.965 -14.492,-14.543 -19.168,-23.582 -6.641,-13.09 -10.473,-27.535 -11.746,-42.133 -1.129,-13.011 -0.278,-26.371 3.847,-38.824 2.504,-7.359 6.309,-14.453 12.184,-19.668 3.785,-3.184 8.426,-5.426 13.41,-5.797 6.008,-0.445 11.969,1.684 16.922,5 8.031,5.399 14.055,13.313 18.656,21.727 6.715,12.172 10.695,25.75 12.496,39.5 0.707,5.011 0.903,10.054 1.043,15.109 z"
           style="fill:none;stroke:#000000;stroke-width:1.5;stroke-linecap:round;stroke-linejoin:round;stroke-miterlimit:10;stroke-dasharray:none;stroke-opacity:1"
           id="path20"
           inkscape:connector-curvature="0" /></g><text
         transform="translate(164.54434,100.53553)"
         style="font-variant:normal;font-weight:normal;font-size:1.87px;font-family:'DejaVu Sans';-inkscape-font-specification:DejaVuSans;writing-mode:lr-tb;fill:#000000;fill-opacity:1;fill-rule:nonzero;stroke:none"
         id="text24"><tspan
           x="0"
           y="0"
           id="tspan22">●</tspan></text>
<g
         id="g26"><path
           d="m 164.652,100.051 c 0,-0.125 0.032,-0.242 0.094,-0.36 0.063,-0.113 0.145,-0.203 0.25,-0.265 0.113,-0.063 0.234,-0.094 0.359,-0.094 0.133,0 0.254,0.031 0.36,0.094 0.113,0.062 0.203,0.152 0.265,0.265 0.063,0.118 0.094,0.235 0.094,0.36 0,0.125 -0.031,0.246 -0.094,0.359 -0.062,0.106 -0.152,0.192 -0.265,0.266 -0.106,0.062 -0.227,0.094 -0.36,0.094 -0.125,0 -0.246,-0.032 -0.359,-0.094 -0.105,-0.074 -0.187,-0.16 -0.25,-0.266 -0.062,-0.113 -0.094,-0.234 -0.094,-0.359 z"
           style="fill:none;stroke:#000000;stroke-width:0.75;stroke-linecap:round;stroke-linejoin:round;stroke-miterlimit:10;stroke-dasharray:none;stroke-opacity:1"
           id="path28"
           inkscape:connector-curvature="0" /></g><g
         id="g30"
         transform="scale(1,-1)"><path
           d="M 245.508,-173.48 H 409.855 V -318.391"
           style="fill:none;stroke:#000000;stroke-width:0.75;stroke-linecap:butt;stroke-linejoin:miter;stroke-miterlimit:4;stroke-dasharray:none;stroke-opacity:1"
           id="path32"
           inkscape:connector-curvature="0" /></g><g
         id="g34"
         transform="scale(1,-1)"><path
           d="M 83.527,-372.277 H 424.676"
           style="fill:none;stroke:#000000;stroke-width:0.75;stroke-linecap:round;stroke-linejoin:round;stroke-miterlimit:10;stroke-dasharray:none;stroke-opacity:1"
           id="path36"
           inkscape:connector-curvature="0" /></g><g
         id="g38"
         transform="scale(1,-1)"><path
           d="m 83.527,-372.277 v -7.2"
           style="fill:none;stroke:#000000;stroke-width:0.75;stroke-linecap:round;stroke-linejoin:round;stroke-miterlimit:10;stroke-dasharray:none;stroke-opacity:1"
           id="path40"
           inkscape:connector-curvature="0" /></g><g
         id="g42"
         transform="scale(1,-1)"><path
           d="m 140.387,-372.277 v -7.2"
           style="fill:none;stroke:#000000;stroke-width:0.75;stroke-linecap:round;stroke-linejoin:round;stroke-miterlimit:10;stroke-dasharray:none;stroke-opacity:1"
           id="path44"
           inkscape:connector-curvature="0" /></g><g
         id="g46"
         transform="scale(1,-1)"><path
           d="m 197.246,-372.277 v -7.2"
           style="fill:none;stroke:#000000;stroke-width:0.75;stroke-linecap:round;stroke-linejoin:round;stroke-miterlimit:10;stroke-dasharray:none;stroke-opacity:1"
           id="path48"
           inkscape:connector-curvature="0" /></g><g
         id="g50"
         transform="scale(1,-1)"><path
           d="m 254.105,-372.277 v -7.2"
           style="fill:none;stroke:#000000;stroke-width:0.75;stroke-linecap:round;stroke-linejoin:round;stroke-miterlimit:10;stroke-dasharray:none;stroke-opacity:1"
           id="path52"
           inkscape:connector-curvature="0" /></g><g
         id="g54"
         transform="scale(1,-1)"><path
           d="m 310.957,-372.277 v -7.2"
           style="fill:none;stroke:#000000;stroke-width:0.75;stroke-linecap:round;stroke-linejoin:round;stroke-miterlimit:10;stroke-dasharray:none;stroke-opacity:1"
           id="path56"
           inkscape:connector-curvature="0" /></g><g
         id="g58"
         transform="scale(1,-1)"><path
           d="m 367.816,-372.277 v -7.2"
           style="fill:none;stroke:#000000;stroke-width:0.75;stroke-linecap:round;stroke-linejoin:round;stroke-miterlimit:10;stroke-dasharray:none;stroke-opacity:1"
           id="path60"
           inkscape:connector-curvature="0" /></g><g
         id="g62"
         transform="scale(1,-1)"><path
           d="m 424.676,-372.277 v -7.2"
           style="fill:none;stroke:#000000;stroke-width:0.75;stroke-linecap:round;stroke-linejoin:round;stroke-miterlimit:10;stroke-dasharray:none;stroke-opacity:1"
           id="path64"
           inkscape:connector-curvature="0" /></g><text
         transform="translate(69.417997,399.07925)"
         style="font-variant:normal;font-weight:normal;font-size:14.51999855px;font-family:'Nimbus Sans';-inkscape-font-specification:NimbusSans-Regular;writing-mode:lr-tb;fill:#000000;fill-opacity:1;fill-rule:nonzero;stroke:none"
         id="text68"><tspan
           x="0 8.0731192 12.109679 20.182798 56.845795 64.918915 68.955475 77.028595 113.72063 121.79375 125.83031 133.90343 170.56642 178.63954 182.6761 190.74922 227.42674 235.49986 239.53642 247.60954 284.28705 292.36017 296.39673 304.46985 341.13998 349.2131 353.24966 361.32278"
           y="0"
           sodipodi:role="line"
           id="tspan66">3.763.783.803.823.843.863.88</tspan></text>
<g
         id="g70"
         transform="scale(1,-1)"><path
           d="M 57.816,-340.766 V -46.168"
           style="fill:none;stroke:#000000;stroke-width:0.75;stroke-linecap:round;stroke-linejoin:round;stroke-miterlimit:10;stroke-dasharray:none;stroke-opacity:1"
           id="path72"
           inkscape:connector-curvature="0" /></g><g
         id="g74"
         transform="scale(1,-1)"><path
           d="M 57.816,-340.766 H 50.617"
           style="fill:none;stroke:#000000;stroke-width:0.75;stroke-linecap:round;stroke-linejoin:round;stroke-miterlimit:10;stroke-dasharray:none;stroke-opacity:1"
           id="path76"
           inkscape:connector-curvature="0" /></g><g
         id="g78"
         transform="scale(1,-1)"><path
           d="M 57.816,-267.117 H 50.617"
           style="fill:none;stroke:#000000;stroke-width:0.75;stroke-linecap:round;stroke-linejoin:round;stroke-miterlimit:10;stroke-dasharray:none;stroke-opacity:1"
           id="path80"
           inkscape:connector-curvature="0" /></g><g
         id="g82"
         transform="scale(1,-1)"><path
           d="M 57.816,-193.469 H 50.617"
           style="fill:none;stroke:#000000;stroke-width:0.75;stroke-linecap:round;stroke-linejoin:round;stroke-miterlimit:10;stroke-dasharray:none;stroke-opacity:1"
           id="path84"
           inkscape:connector-curvature="0" /></g><g
         id="g86"
         transform="scale(1,-1)"><path
           d="M 57.816,-119.816 H 50.617"
           style="fill:none;stroke:#000000;stroke-width:0.75;stroke-linecap:round;stroke-linejoin:round;stroke-miterlimit:10;stroke-dasharray:none;stroke-opacity:1"
           id="path88"
           inkscape:connector-curvature="0" /></g><g
         id="g90"
         transform="scale(1,-1)"><path
           d="M 57.816,-46.168 H 50.617"
           style="fill:none;stroke:#000000;stroke-width:0.75;stroke-linecap:round;stroke-linejoin:round;stroke-miterlimit:10;stroke-dasharray:none;stroke-opacity:1"
           id="path92"
           inkscape:connector-curvature="0" /></g><text
         transform="rotate(-90,202.19422,160.77612)"
         style="font-variant:normal;font-weight:normal;font-size:14.51999855px;font-family:'Nimbus Sans';-inkscape-font-specification:NimbusSans-Regular;writing-mode:lr-tb;fill:#000000;fill-opacity:1;fill-rule:nonzero;stroke:none"
         id="text96"><tspan
           x="0 8.0731192 12.109679 20.182798 28.255919 36.329037 73.659958 81.733078 85.76963 93.842751 101.91587 109.98899 147.30539 155.37851 159.41507 167.48819 175.56131 183.63443 220.95082 229.02394 233.0605 241.13362 249.20674 257.27988 294.59625 302.66937 306.70593 314.77905 322.85217 330.92529"
           y="0"
           sodipodi:role="line"
           id="tspan94">0.09250.09300.09350.09400.0945</tspan></text>
<text
         transform="translate(232.90569,419.25979)"
         style="font-variant:normal;font-weight:normal;font-size:9.68000031px;font-family:'Nimbus Sans';-inkscape-font-specification:NimbusSans-Regular;writing-mode:lr-tb;fill:#000000;fill-opacity:1;fill-rule:nonzero;stroke:none"
         id="text100"><tspan
           x="0 5.3820801 10.76416"
           y="0"
           sodipodi:role="line"
           id="tspan98">238</tspan></text>
<text
         transform="translate(249.04708,426.47139)"
         style="font-variant:normal;font-weight:normal;font-size:14.52000046px;font-family:'Nimbus Sans';-inkscape-font-specification:NimbusSans-Regular;writing-mode:lr-tb;fill:#000000;fill-opacity:1;fill-rule:nonzero;stroke:none"
         id="text104"><tspan
           x="0 10.48344"
           y="0"
           sodipodi:role="line"
           id="tspan102">U/</tspan></text>
<text
         transform="translate(263.56708,419.25979)"
         style="font-variant:normal;font-weight:normal;font-size:9.68000031px;font-family:'Nimbus Sans';-inkscape-font-specification:NimbusSans-Regular;writing-mode:lr-tb;fill:#000000;fill-opacity:1;fill-rule:nonzero;stroke:none"
         id="text108"><tspan
           x="0 5.3820801 10.76416"
           y="0"
           sodipodi:role="line"
           id="tspan106">206</tspan></text>
<text
         transform="translate(279.72059,426.47139)"
         style="font-variant:normal;font-weight:normal;font-size:14.52000046px;font-family:'Nimbus Sans';-inkscape-font-specification:NimbusSans-Regular;writing-mode:lr-tb;fill:#000000;fill-opacity:1;fill-rule:nonzero;stroke:none"
         id="text112"><tspan
           x="0 9.6848402"
           y="0"
           sodipodi:role="line"
           id="tspan110">Pb</tspan></text>
<text
         transform="rotate(-90,114.71368,107.71504)"
         style="font-variant:normal;font-weight:normal;font-size:9.68000031px;font-family:'Nimbus Sans';-inkscape-font-specification:NimbusSans-Regular;writing-mode:lr-tb;fill:#000000;fill-opacity:1;fill-rule:nonzero;stroke:none"
         id="text116"><tspan
           x="0 5.3820801 10.76416"
           y="0"
           sodipodi:role="line"
           id="tspan114">207</tspan></text>
<text
         transform="rotate(-90,110.24273,96.032488)"
         style="font-variant:normal;font-weight:normal;font-size:14.52000046px;font-family:'Nimbus Sans';-inkscape-font-specification:NimbusSans-Regular;writing-mode:lr-tb;fill:#000000;fill-opacity:1;fill-rule:nonzero;stroke:none"
         id="text120"><tspan
           x="0 9.6848402 17.757959"
           y="0"
           sodipodi:role="line"
           id="tspan118">Pb/</tspan></text>
<text
         transform="rotate(-90,95.740881,88.742242)"
         style="font-variant:normal;font-weight:normal;font-size:9.68000031px;font-family:'Nimbus Sans';-inkscape-font-specification:NimbusSans-Regular;writing-mode:lr-tb;fill:#000000;fill-opacity:1;fill-rule:nonzero;stroke:none"
         id="text124"><tspan
           x="0 5.3820801 10.76416"
           y="0"
           sodipodi:role="line"
           id="tspan122">206</tspan></text>
<text
         transform="rotate(-90,91.275984,77.065745)"
         style="font-variant:normal;font-weight:normal;font-size:14.52000046px;font-family:'Nimbus Sans';-inkscape-font-specification:NimbusSans-Regular;writing-mode:lr-tb;fill:#000000;fill-opacity:1;fill-rule:nonzero;stroke:none"
         id="text128"><tspan
           x="0 9.6848402"
           y="0"
           sodipodi:role="line"
           id="tspan126">Pb</tspan></text>
<text
         transform="translate(406.92608,320.47726)"
         style="font-variant:normal;font-weight:normal;font-size:7.48000002px;font-family:'DejaVu Sans';-inkscape-font-specification:DejaVuSans;writing-mode:lr-tb;fill:#ffffff;fill-opacity:1;fill-rule:nonzero;stroke:none"
         id="text132"><tspan
           x="0"
           y="0"
           id="tspan130">●</tspan></text>
<g
         id="g134"><path
           d="m 407.332,318.539 c 0,-0.508 0.129,-0.984 0.391,-1.422 0.25,-0.445 0.597,-0.797 1.047,-1.047 0.437,-0.258 0.91,-0.39 1.421,-0.39 0.508,0 0.985,0.132 1.422,0.39 0.446,0.25 0.797,0.602 1.047,1.047 0.258,0.438 0.391,0.914 0.391,1.422 0,0.512 -0.133,0.984 -0.391,1.422 -0.25,0.449 -0.601,0.797 -1.047,1.047 -0.437,0.258 -0.914,0.39 -1.422,0.39 -0.511,0 -0.984,-0.132 -1.421,-0.39 -0.45,-0.25 -0.797,-0.598 -1.047,-1.047 -0.262,-0.438 -0.391,-0.91 -0.391,-1.422 z"
           style="fill:none;stroke:#000000;stroke-width:0.75;stroke-linecap:round;stroke-linejoin:round;stroke-miterlimit:10;stroke-dasharray:none;stroke-opacity:1"
           id="path136"
           inkscape:connector-curvature="0" /></g><text
         transform="translate(334.61542,333.40495)"
         style="font-variant:normal;font-weight:normal;font-size:14.51999855px;font-family:'Nimbus Sans';-inkscape-font-specification:NimbusSans-Regular;writing-mode:lr-tb;fill:#000000;fill-opacity:1;fill-rule:nonzero;stroke:none"
         id="text140"><tspan
           x="0"
           y="0"
           id="tspan138">t</tspan></text>
<text
         transform="translate(338.65197,336.30895)"
         style="font-variant:normal;font-weight:normal;font-size:9.43799877px;font-family:'Nimbus Sans';-inkscape-font-specification:NimbusSans-Regular;writing-mode:lr-tb;fill:#000000;fill-opacity:1;fill-rule:nonzero;stroke:none"
         id="text144"><tspan
           x="0 5.2475276"
           y="0"
           sodipodi:role="line"
           id="tspan142">68</tspan></text>
<text
         transform="translate(349.14703,333.40495)"
         style="font-variant:normal;font-weight:normal;font-size:14.51999855px;font-family:'Nimbus Sans';-inkscape-font-specification:NimbusSans-Regular;writing-mode:lr-tb;fill:#000000;fill-opacity:1;fill-rule:nonzero;stroke:none"
         id="text148"><tspan
           x="0 8.4796791 16.552799 24.625917 32.699039 40.772156 44.808716 56.903877"
           y="0"
           sodipodi:role="line"
           id="tspan146">=1480 Ma</tspan></text>
<text
         transform="translate(324.1961,248.24726)"
         style="font-variant:normal;font-weight:normal;font-size:7.48000002px;font-family:'DejaVu Sans';-inkscape-font-specification:DejaVuSans;writing-mode:lr-tb;fill:#ffffff;fill-opacity:1;fill-rule:nonzero;stroke:none"
         id="text152"><tspan
           x="0"
           y="0"
           id="tspan150">●</tspan></text>
<g
         id="g154"><path
           d="m 324.602,246.309 c 0,-0.508 0.128,-0.985 0.39,-1.422 0.25,-0.446 0.598,-0.797 1.047,-1.047 0.438,-0.258 0.91,-0.391 1.422,-0.391 0.508,0 0.984,0.133 1.422,0.391 0.445,0.25 0.797,0.601 1.047,1.047 0.258,0.437 0.39,0.914 0.39,1.422 0,0.511 -0.132,0.984 -0.39,1.421 -0.25,0.45 -0.602,0.797 -1.047,1.047 -0.438,0.258 -0.914,0.391 -1.422,0.391 -0.512,0 -0.984,-0.133 -1.422,-0.391 -0.449,-0.25 -0.797,-0.597 -1.047,-1.047 -0.262,-0.437 -0.39,-0.91 -0.39,-1.421 z"
           style="fill:none;stroke:#000000;stroke-width:0.75;stroke-linecap:round;stroke-linejoin:round;stroke-miterlimit:10;stroke-dasharray:none;stroke-opacity:1"
           id="path156"
           inkscape:connector-curvature="0" /></g><text
         transform="translate(285.89706,250.90926)"
         style="font-variant:normal;font-weight:normal;font-size:14.51999855px;font-family:'Nimbus Sans';-inkscape-font-specification:NimbusSans-Regular;writing-mode:lr-tb;fill:#000000;fill-opacity:1;fill-rule:nonzero;stroke:none"
         id="text160"><tspan
           x="0 8.0731192 16.146238 24.219358"
           y="0"
           sodipodi:role="line"
           id="tspan158">1490</tspan></text>
<text
         transform="translate(242.56609,175.53727)"
         style="font-variant:normal;font-weight:normal;font-size:7.48000002px;font-family:'DejaVu Sans';-inkscape-font-specification:DejaVuSans;writing-mode:lr-tb;fill:#ffffff;fill-opacity:1;fill-rule:nonzero;stroke:none"
         id="text164"><tspan
           x="0"
           y="0"
           id="tspan162">●</tspan></text>
<g
         id="g166"><path
           d="m 242.973,173.602 c 0,-0.508 0.129,-0.985 0.39,-1.422 0.25,-0.446 0.598,-0.797 1.047,-1.047 0.438,-0.258 0.91,-0.391 1.422,-0.391 0.508,0 0.984,0.133 1.422,0.391 0.445,0.25 0.797,0.601 1.047,1.047 0.258,0.437 0.39,0.914 0.39,1.422 0,0.511 -0.132,0.984 -0.39,1.421 -0.25,0.45 -0.602,0.797 -1.047,1.047 -0.438,0.258 -0.914,0.391 -1.422,0.391 -0.512,0 -0.984,-0.133 -1.422,-0.391 -0.449,-0.25 -0.797,-0.597 -1.047,-1.047 -0.261,-0.437 -0.39,-0.91 -0.39,-1.421 z"
           style="fill:none;stroke:#000000;stroke-width:0.75;stroke-linecap:round;stroke-linejoin:round;stroke-miterlimit:10;stroke-dasharray:none;stroke-opacity:1"
           id="path168"
           inkscape:connector-curvature="0" /></g><text
         transform="translate(171.74541,189.96498)"
         style="font-variant:normal;font-weight:normal;font-size:14.51999855px;font-family:'Nimbus Sans';-inkscape-font-specification:NimbusSans-Regular;writing-mode:lr-tb;fill:#000000;fill-opacity:1;fill-rule:nonzero;stroke:none"
         id="text172"><tspan
           x="0"
           y="0"
           id="tspan170">t</tspan></text>
<text
         transform="translate(175.78197,192.86898)"
         style="font-variant:normal;font-weight:normal;font-size:9.43799877px;font-family:'Nimbus Sans';-inkscape-font-specification:NimbusSans-Regular;writing-mode:lr-tb;fill:#000000;fill-opacity:1;fill-rule:nonzero;stroke:none"
         id="text176"><tspan
           x="0 5.2475276"
           y="0"
           sodipodi:role="line"
           id="tspan174">76</tspan></text>
<text
         transform="translate(186.27702,189.96498)"
         style="font-variant:normal;font-weight:normal;font-size:14.51999855px;font-family:'Nimbus Sans';-inkscape-font-specification:NimbusSans-Regular;writing-mode:lr-tb;fill:#000000;fill-opacity:1;fill-rule:nonzero;stroke:none"
         id="text182"><tspan
           x="0 8.4796791 16.552799 24.625917 32.699039 40.772156 44.808716 56.903877"
           y="0"
           sodipodi:role="line"
           id="tspan178">=1500 Ma</tspan><tspan
           x="-52.059948 -43.986828 -35.913708 -27.840588"
           y="-74.455696"
           sodipodi:role="line"
           id="tspan180">1510</tspan></text>
<text
         transform="translate(82.5361,28.667275)"
         style="font-variant:normal;font-weight:normal;font-size:7.48000002px;font-family:'DejaVu Sans';-inkscape-font-specification:DejaVuSans;writing-mode:lr-tb;fill:#ffffff;fill-opacity:1;fill-rule:nonzero;stroke:none"
         id="text186"><tspan
           x="0"
           y="0"
           id="tspan184">●</tspan></text>
<g
         id="g188"><path
           d="m 82.941,26.73 c 0,-0.507 0.129,-0.984 0.391,-1.421 0.25,-0.446 0.598,-0.797 1.047,-1.047 0.437,-0.258 0.91,-0.391 1.422,-0.391 0.508,0 0.984,0.133 1.422,0.391 0.445,0.25 0.797,0.601 1.047,1.047 0.257,0.437 0.39,0.914 0.39,1.421 0,0.512 -0.133,0.985 -0.39,1.422 -0.25,0.45 -0.602,0.797 -1.047,1.047 -0.438,0.258 -0.914,0.391 -1.422,0.391 -0.512,0 -0.985,-0.133 -1.422,-0.391 -0.449,-0.25 -0.797,-0.597 -1.047,-1.047 -0.262,-0.437 -0.391,-0.91 -0.391,-1.422 z"
           style="fill:none;stroke:#000000;stroke-width:0.75;stroke-linecap:round;stroke-linejoin:round;stroke-miterlimit:10;stroke-dasharray:none;stroke-opacity:1"
           id="path190"
           inkscape:connector-curvature="0" /></g><text
         transform="translate(89.237073,29.829293)"
         style="font-variant:normal;font-weight:normal;font-size:14.51999855px;font-family:'Nimbus Sans';-inkscape-font-specification:NimbusSans-Regular;writing-mode:lr-tb;fill:#000000;fill-opacity:1;fill-rule:nonzero;stroke:none"
         id="text194"><tspan
           x="0 8.0731192 16.146238 24.219358"
           y="0"
           sodipodi:role="line"
           id="tspan192">1520</tspan></text>
<g
         id="g196"
         transform="scale(1,-1)"><path
           d="M 57.816,-372.277 H 472.535 M 57.816,-0.758 v -371.519"
           style="fill:none;stroke:#000000;stroke-width:0.75;stroke-linecap:round;stroke-linejoin:round;stroke-miterlimit:10;stroke-dasharray:none;stroke-opacity:1"
           id="path198"
           inkscape:connector-curvature="0" /></g><g
         id="g200"
         transform="scale(1,-1)"><path
           d="M 57.816,-372.277 H 472.535 M 57.816,-0.758 v -371.519"
           style="fill:none;stroke:#000000;stroke-width:0.75;stroke-linecap:round;stroke-linejoin:round;stroke-miterlimit:10;stroke-dasharray:none;stroke-opacity:1"
           id="path202"
           inkscape:connector-curvature="0" /></g><g
         id="g204"
         transform="scale(1,-1)"><path
           d="m 450.398,-159.566 c -0.179,10.933 -1.593,22.027 -5.871,32.168 -2.828,6.765 -7.027,13.148 -13.054,17.453 -4.125,2.843 -9.094,4.468 -14.129,4.3 -5.735,-0.148 -11.164,-2.503 -15.899,-5.644 -8.445,-5.981 -14.761,-14.516 -19.519,-23.613 -6.653,-12.805 -10.531,-26.985 -11.852,-41.332 -1.203,-13.047 -0.328,-26.457 3.914,-38.914 2.551,-7.231 6.36,-14.215 12.196,-19.313 3.89,-3.324 8.738,-5.617 13.886,-6 5.5,-0.457 10.957,1.25 15.735,3.922 7.886,4.629 13.992,11.734 18.855,19.387 7.867,12.804 12.586,27.402 14.633,42.254 0.734,5.086 0.965,10.195 1.105,15.332 z"
           style="fill:none;stroke:#000000;stroke-width:1.5;stroke-linecap:round;stroke-linejoin:round;stroke-miterlimit:10;stroke-dasharray:none;stroke-opacity:1"
           id="path206"
           inkscape:connector-curvature="0" /></g><text
         transform="translate(409.21783,173.73771)"
         style="font-variant:normal;font-weight:normal;font-size:1.87px;font-family:'DejaVu Sans';-inkscape-font-specification:DejaVuSans;writing-mode:lr-tb;fill:#000000;fill-opacity:1;fill-rule:nonzero;stroke:none"
         id="text210"><tspan
           x="0"
           y="0"
           id="tspan208">●</tspan></text>
<g
         id="g212"><path
           d="m 409.328,173.254 c 0,-0.125 0.031,-0.242 0.094,-0.359 0.062,-0.114 0.144,-0.204 0.25,-0.266 0.113,-0.063 0.234,-0.094 0.359,-0.094 0.133,0 0.254,0.031 0.36,0.094 0.113,0.062 0.203,0.152 0.265,0.266 0.063,0.117 0.094,0.234 0.094,0.359 0,0.125 -0.031,0.246 -0.094,0.359 -0.062,0.106 -0.152,0.192 -0.265,0.266 -0.106,0.062 -0.227,0.094 -0.36,0.094 -0.125,0 -0.246,-0.032 -0.359,-0.094 -0.106,-0.074 -0.188,-0.16 -0.25,-0.266 -0.063,-0.113 -0.094,-0.234 -0.094,-0.359 z"
           style="fill:none;stroke:#000000;stroke-width:1.5;stroke-linecap:round;stroke-linejoin:round;stroke-miterlimit:10;stroke-dasharray:none;stroke-opacity:1"
           id="path214"
           inkscape:connector-curvature="0" /></g><g
         id="g216"
         transform="scale(1,-1)"><path
           d="M 409.855,-173.48 364.938,-278.211"
           style="fill:none;stroke:#000000;stroke-width:0.75;stroke-linecap:butt;stroke-linejoin:miter;stroke-miterlimit:4;stroke-dasharray:none;stroke-opacity:1"
           id="path218"
           inkscape:connector-curvature="0" /></g><text
         transform="translate(361.6961,281.24725)"
         style="font-variant:normal;font-weight:normal;font-size:7.48000002px;font-family:'DejaVu Sans';-inkscape-font-specification:DejaVuSans;writing-mode:lr-tb;fill:#ffffff;fill-opacity:1;fill-rule:nonzero;stroke:none"
         id="text222"><tspan
           x="0"
           y="0"
           id="tspan220">●</tspan></text>
<g
         id="g224"><path
           d="m 362.102,279.309 c 0,-0.508 0.128,-0.985 0.39,-1.422 0.25,-0.446 0.598,-0.797 1.047,-1.047 0.438,-0.258 0.91,-0.391 1.422,-0.391 0.508,0 0.984,0.133 1.422,0.391 0.445,0.25 0.797,0.601 1.047,1.047 0.258,0.437 0.39,0.914 0.39,1.422 0,0.511 -0.132,0.984 -0.39,1.421 -0.25,0.45 -0.602,0.797 -1.047,1.047 -0.438,0.258 -0.914,0.391 -1.422,0.391 -0.512,0 -0.984,-0.133 -1.422,-0.391 -0.449,-0.25 -0.797,-0.597 -1.047,-1.047 -0.262,-0.437 -0.39,-0.91 -0.39,-1.421 z"
           style="fill:none;stroke:#000000;stroke-width:0.75;stroke-linecap:round;stroke-linejoin:round;stroke-miterlimit:10;stroke-dasharray:none;stroke-opacity:1"
           id="path226"
           inkscape:connector-curvature="0" /></g><text
         transform="translate(162.0161,102.34727)"
         style="font-variant:normal;font-weight:normal;font-size:7.48000002px;font-family:'DejaVu Sans';-inkscape-font-specification:DejaVuSans;writing-mode:lr-tb;fill:#ffffff;fill-opacity:1;fill-rule:nonzero;stroke:none"
         id="text230"><tspan
           x="0"
           y="0"
           id="tspan228">●</tspan></text>
<g
         id="g232"><path
           d="m 162.422,100.41 c 0,-0.508 0.129,-0.984 0.39,-1.422 0.25,-0.445 0.598,-0.797 1.047,-1.047 0.438,-0.257 0.911,-0.39 1.422,-0.39 0.508,0 0.985,0.133 1.422,0.39 0.445,0.25 0.797,0.602 1.047,1.047 0.258,0.438 0.391,0.914 0.391,1.422 0,0.512 -0.133,0.985 -0.391,1.422 -0.25,0.449 -0.602,0.797 -1.047,1.047 -0.437,0.258 -0.914,0.391 -1.422,0.391 -0.511,0 -0.984,-0.133 -1.422,-0.391 -0.449,-0.25 -0.797,-0.598 -1.047,-1.047 -0.261,-0.437 -0.39,-0.91 -0.39,-1.422 z"
           style="fill:none;stroke:#000000;stroke-width:0.75;stroke-linecap:round;stroke-linejoin:round;stroke-miterlimit:10;stroke-dasharray:none;stroke-opacity:1"
           id="path234"
           inkscape:connector-curvature="0" /></g><text
         transform="translate(202.82724,19.723489)"
         style="font-variant:normal;font-weight:normal;font-size:14.51999855px;font-family:'Nimbus Sans';-inkscape-font-specification:NimbusSans-Regular;writing-mode:lr-tb;fill:#000000;fill-opacity:1;fill-rule:nonzero;stroke:none"
         id="text240"><tspan
           x="0 12.09516 20.066639 28.139757 35.399757 43.472878 48.162838 56.235954 68.331116 76.404236 84.477356 88.513916 92.550476"
           y="0"
           sodipodi:role="line"
           id="tspan236">measurement 1</tspan><tspan
           x="0"
           y="18.15"
           id="tspan238">t</tspan></text>
<text
         transform="translate(206.8638,40.777487)"
         style="font-variant:normal;font-weight:normal;font-size:9.43799877px;font-family:'Nimbus Sans';-inkscape-font-specification:NimbusSans-Regular;writing-mode:lr-tb;fill:#000000;fill-opacity:1;fill-rule:nonzero;stroke:none"
         id="text244"><tspan
           x="0 5.2475276"
           y="0"
           sodipodi:role="line"
           id="tspan242">68</tspan></text>
<text
         transform="translate(221.39541,37.873488)"
         style="font-variant:normal;font-weight:normal;font-size:14.51999855px;font-family:'Nimbus Sans';-inkscape-font-specification:NimbusSans-Regular;writing-mode:lr-tb;fill:#000000;fill-opacity:1;fill-rule:nonzero;stroke:none"
         id="text248"><tspan
           x="0 8.4796791"
           y="0"
           sodipodi:role="line"
           id="tspan246">=t</tspan></text>
<text
         transform="translate(233.91164,40.777487)"
         style="font-variant:normal;font-weight:normal;font-size:9.43799877px;font-family:'Nimbus Sans';-inkscape-font-specification:NimbusSans-Regular;writing-mode:lr-tb;fill:#000000;fill-opacity:1;fill-rule:nonzero;stroke:none"
         id="text252"><tspan
           x="0 5.2475276"
           y="0"
           sodipodi:role="line"
           id="tspan250">76</tspan></text>
<text
         transform="translate(248.44325,37.873488)"
         style="font-variant:normal;font-weight:normal;font-size:14.51999855px;font-family:'Nimbus Sans';-inkscape-font-specification:NimbusSans-Regular;writing-mode:lr-tb;fill:#000000;fill-opacity:1;fill-rule:nonzero;stroke:none"
         id="text256"><tspan
           x="0 8.4796791"
           y="0"
           sodipodi:role="line"
           id="tspan254">=t</tspan></text>
<text
         transform="translate(260.95948,40.777487)"
         style="font-variant:normal;font-weight:normal;font-size:9.43799877px;font-family:'Nimbus Sans';-inkscape-font-specification:NimbusSans-Regular;writing-mode:lr-tb;fill:#000000;fill-opacity:1;fill-rule:nonzero;stroke:none"
         id="text260"><tspan
           x="0"
           y="0"
           id="tspan258">c</tspan></text>
<text
         transform="translate(269.71502,37.873488)"
         style="font-variant:normal;font-weight:normal;font-size:14.51999855px;font-family:'Nimbus Sans';-inkscape-font-specification:NimbusSans-Regular;writing-mode:lr-tb;fill:#000000;fill-opacity:1;fill-rule:nonzero;stroke:none"
         id="text266"><tspan
           x="0 8.4796791 16.552799 24.625917 32.699039 40.772156 44.808716 56.903877"
           y="0"
           sodipodi:role="line"
           id="tspan262">=1510 Ma</tspan><tspan
           x="-66.887787 -62.052624 -54.676464 -46.603344 -38.530228 -31.154066 -23.080946 -18.245787 -10.245268 -2.1721482 5.9009709 9.9375305"
           y="18.15"
           sodipodi:role="line"
           id="tspan264">(concordant)</tspan></text>
<text
         transform="translate(361.78003,62.370094)"
         style="font-variant:normal;font-weight:normal;font-size:14.52000046px;font-family:'Nimbus Sans';-inkscape-font-specification:NimbusSans-Regular;writing-mode:lr-tb;fill:#000000;fill-opacity:1;fill-rule:nonzero;stroke:none"
         id="text272"><tspan
           x="0 12.09516 20.066641 28.139759 35.399761 43.472881 48.162842 56.235958 68.331123 76.404243 84.477364 88.513924 92.550484"
           y="0"
           sodipodi:role="line"
           id="tspan268">measurement 2</tspan><tspan
           x="37.772213"
           y="18.15"
           id="tspan270">t</tspan></text>
<text
         transform="translate(403.5888,83.424094)"
         style="font-variant:normal;font-weight:normal;font-size:9.43799877px;font-family:'Nimbus Sans';-inkscape-font-specification:NimbusSans-Regular;writing-mode:lr-tb;fill:#000000;fill-opacity:1;fill-rule:nonzero;stroke:none"
         id="text276"><tspan
           x="0 5.2475276"
           y="0"
           sodipodi:role="line"
           id="tspan274">68</tspan></text>
<text
         transform="translate(418.12041,80.520094)"
         style="font-variant:normal;font-weight:normal;font-size:14.52000046px;font-family:'Nimbus Sans';-inkscape-font-specification:NimbusSans-Regular;writing-mode:lr-tb;fill:#000000;fill-opacity:1;fill-rule:nonzero;stroke:none"
         id="text280"><tspan
           x="0 8.4796801"
           y="0"
           sodipodi:role="line"
           id="tspan278">&lt;t</tspan></text>
<text
         transform="translate(430.63664,83.424094)"
         style="font-variant:normal;font-weight:normal;font-size:9.43799877px;font-family:'Nimbus Sans';-inkscape-font-specification:NimbusSans-Regular;writing-mode:lr-tb;fill:#000000;fill-opacity:1;fill-rule:nonzero;stroke:none"
         id="text284"><tspan
           x="0"
           y="0"
           id="tspan282">c</tspan></text>
<text
         transform="translate(439.39219,80.520094)"
         style="font-variant:normal;font-weight:normal;font-size:14.52000046px;font-family:'Nimbus Sans';-inkscape-font-specification:NimbusSans-Regular;writing-mode:lr-tb;fill:#000000;fill-opacity:1;fill-rule:nonzero;stroke:none"
         id="text288"><tspan
           x="0 8.4796801"
           y="0"
           sodipodi:role="line"
           id="tspan286">&lt;t</tspan></text>
<text
         transform="translate(451.90842,83.424094)"
         style="font-variant:normal;font-weight:normal;font-size:9.43799877px;font-family:'Nimbus Sans';-inkscape-font-specification:NimbusSans-Regular;writing-mode:lr-tb;fill:#000000;fill-opacity:1;fill-rule:nonzero;stroke:none"
         id="text292"><tspan
           x="0 5.2475276"
           y="0"
           sodipodi:role="line"
           id="tspan290">76</tspan></text>
<text
         transform="translate(385.70906,98.670094)"
         style="font-variant:normal;font-weight:normal;font-size:14.52000046px;font-family:'Nimbus Sans';-inkscape-font-specification:NimbusSans-Regular;writing-mode:lr-tb;fill:#000000;fill-opacity:1;fill-rule:nonzero;stroke:none"
         id="text296"><tspan
           x="0 4.8351598 12.90828 16.13172 23.39172 30.767879 38.841 43.676159 51.676682 59.749802 67.822922 71.859482"
           y="0"
           sodipodi:role="line"
           id="tspan294">(discordant)</tspan></text>
<text
         transform="translate(293.74664,294.96497)"
         style="font-variant:normal;font-weight:normal;font-size:14.51999855px;font-family:'Nimbus Sans';-inkscape-font-specification:NimbusSans-Regular;writing-mode:lr-tb;fill:#000000;fill-opacity:1;fill-rule:nonzero;stroke:none"
         id="text300"><tspan
           x="0"
           y="0"
           id="tspan298">t</tspan></text>
<text
         transform="translate(297.7832,297.86897)"
         style="font-variant:normal;font-weight:normal;font-size:9.43799877px;font-family:'Nimbus Sans';-inkscape-font-specification:NimbusSans-Regular;writing-mode:lr-tb;fill:#000000;fill-opacity:1;fill-rule:nonzero;stroke:none"
         id="text304"><tspan
           x="0"
           y="0"
           id="tspan302">c</tspan></text>
<text
         transform="translate(302.50218,294.96497)"
         style="font-variant:normal;font-weight:normal;font-size:14.51999855px;font-family:'Nimbus Sans';-inkscape-font-specification:NimbusSans-Regular;writing-mode:lr-tb;fill:#000000;fill-opacity:1;fill-rule:nonzero;stroke:none"
         id="text308"><tspan
           x="0 8.4796791 16.552799 24.625917 32.699039 40.772156 44.808716 56.903877"
           y="0"
           sodipodi:role="line"
           id="tspan306">=1485 Ma</tspan></text>
</g></g></svg>